<svg width="437" height="695" viewBox="0 0 437 695" fill="none" xmlns="http://www.w3.org/2000/svg">
<path d="M226.462 45.0236C200.74 43.023 189.308 85.6311 186.807 107.185C197.343 139.811 212.494 161.922 239.494 169.922C254.398 256.422 200.994 229.922 250.398 306.888C252.581 310.29 285.494 323.922 303.985 311.175L314.703 264.733C312.678 226.983 292.45 155.433 298.994 136.422C305.538 117.411 298.865 71.9365 291.482 57.1701C280.526 53.9549 252.184 47.0242 226.462 45.0236Z" fill="#E8C4A4"/>
<path d="M285.24 296.927C268.132 297.723 248.934 280.349 241.474 271.562H233.516C231.693 333.4 226.694 455.153 233.856 447.991C241.018 440.83 311.932 441.822 344.922 443.148C336.965 381.145 319.955 261.914 315.579 281.012C310.108 304.885 306.626 295.933 285.24 296.927Z" fill="#141416" stroke="#101223" stroke-width="3.97977"/>
<path d="M232.784 205.775C243.859 217.922 267.08 242.072 271.367 241.5C276.726 240.786 296.375 251.86 302.805 231.854C307.949 215.85 308.283 189.699 307.807 178.624" stroke="#101223" stroke-width="2.85801" stroke-linecap="round" stroke-dasharray="7.15 7.15"/>
<path d="M370.288 438.703H325.989H279.547L228.817 445.49C133.36 450.921 110.5 632.5 121.5 648C132.5 663.5 219.634 698.987 228.817 691.993C238 685 262.643 598.403 262.963 596.803C263.283 595.203 262.963 680.5 269.5 691.993C276.037 703.487 397 671.5 403 648C409 624.5 399.226 571.243 387.794 509.438L370.288 438.703Z" fill="#B8A07D"/>
<circle cx="304.948" cy="462.996" r="8.62025" fill="#F5F6F9" stroke="#101223" stroke-width="2.76554"/>
<circle cx="285.657" cy="243.644" r="8.62025" fill="#F5F6F9" stroke="#101223" stroke-width="2.76554"/>
<path d="M221.352 479.429C232.592 482.338 251.178 485.865 269.06 486.563M309.236 479.429C300.086 485.592 284.848 487.18 269.06 486.563M269.06 486.563C267.745 520.772 264.325 589.388 261.169 590.176" stroke="#404252" stroke-width="2.85801" stroke-linecap="round" stroke-dasharray="7.15 7.15"/>
<circle cx="233.498" cy="466.568" r="8.62025" fill="#F5F6F9" stroke="#101223" stroke-width="2.76554"/>
<path d="M318.325 552.641C319.52 548.19 338.597 494.19 349.165 467.403L352.146 470.314L392.761 483.291C377.874 518.477 351.313 561.648 349.616 582.673C347.919 603.698 347.994 628.223 347.766 632.324C347.539 636.424 342.006 658.422 339.126 658.565C336.246 658.708 345.143 617.83 342.006 622.723C340.001 625.851 337.132 652.751 336.28 661.523C333.327 674.546 321.105 687.896 326.131 670.023C331.158 652.149 329.526 628.223 329.526 628.223C326.564 629.263 320.059 682.435 313.437 680.109C306.815 677.782 315.746 639.044 315.746 639.044C318.033 616.242 318.102 609.844 307.172 649.821C306.513 657.995 295.219 679.355 293.427 674.91C291.636 670.464 291.894 667.259 292.21 663.342C292.527 659.425 300.704 634.606 301.357 628.223C302.011 621.84 300.274 601.629 300.274 601.629C300.274 601.629 297.773 594.259 291.013 624.895C289.925 629.825 278.42 638.059 279.06 626.44C279.701 614.821 289.382 590.954 291.013 588.162C293.05 584.672 297.615 576.652 302.965 573.442C312.565 567.681 316.832 558.205 318.325 552.641Z" fill="#E8C4A4"/>
<path d="M293.427 674.91C291.636 670.464 291.894 667.259 292.21 663.342C292.527 659.425 300.704 634.606 301.357 628.223C302.011 621.84 300.274 601.629 300.274 601.629C300.274 601.629 297.773 594.259 291.013 624.895C289.925 629.825 278.42 638.059 279.06 626.44C279.701 614.821 289.382 590.954 291.013 588.162C293.05 584.672 297.615 576.652 302.965 573.442C312.565 567.681 316.832 558.205 318.325 552.641C319.52 548.19 338.597 494.19 349.165 467.403L352.146 470.314L392.761 483.291C377.874 518.477 351.313 561.648 349.616 582.673C347.919 603.698 347.994 628.223 347.766 632.324C347.539 636.424 342.006 658.422 339.126 658.565C336.246 658.708 345.143 617.83 342.006 622.723C340.001 625.851 337.132 652.751 336.28 661.523C333.327 674.546 321.105 687.896 326.131 670.023C331.158 652.149 329.526 628.223 329.526 628.223C326.564 629.263 320.059 682.435 313.437 680.109C306.815 677.782 315.746 639.044 315.746 639.044C318.033 616.242 318.102 609.844 307.172 649.821M293.427 674.91C295.219 679.355 306.513 657.995 307.172 649.821M293.427 674.91L300.274 667.921L307.172 649.821" stroke="#240E01" stroke-width="4"/>
<path d="M75.8563 255.15C78.8404 253.16 128.575 221.827 131.062 210.886C131.888 207.252 136.741 204.064 143.026 201.436C146.705 199.674 182.602 184.576 175.145 202.324C174.026 204.985 173.646 208.026 174.018 210.889C177.678 239.026 168.481 368.486 177.186 379.653C177.834 380.485 179.034 380.283 179.847 379.611C185.274 375.126 184.994 358.458 184.994 355.117C184.994 350.617 177.731 295.922 184.994 266.422C185.781 263.223 190.568 238.591 194.533 217.738C196.003 210.007 206.488 208.466 210.092 215.462C210.589 216.425 211.279 217.273 212.074 218.011C234.275 238.609 230.841 287.561 234.863 301.321C235.386 303.109 235.962 304.929 235.903 306.791L231.329 451.834C231.183 456.462 227.389 460.138 222.759 460.138H213.35C211.148 460.138 209.031 459.291 207.436 457.772L202.93 453.481C202.589 453.156 202.213 452.86 201.834 452.579C193.407 446.346 199.412 438.578 192.772 432.987C188.434 429.334 170.98 404.764 163.835 390.831C159.844 383.049 141.351 340.042 132.469 319.68C131.283 316.963 128.751 314.923 125.81 315.292C123.953 315.525 122.127 316.104 121.115 317.318C119.126 319.706 93.7609 318.313 81.3272 317.318L46.5127 315.329C57.6202 316.821 79.7357 319.805 79.3378 319.805C78.9785 319.805 116.718 339.003 141.131 351.394C145.233 353.476 146.959 358.421 145.046 362.605L128.251 399.344C126.248 403.727 121.037 405.603 116.706 403.489C87.5508 389.26 37.0104 364.54 18.1638 355.117C-7.69831 342.186 5.23277 323.784 5.23277 319.805C5.23277 315.826 72.8723 257.139 75.8563 255.15Z" fill="#F8A251"/>
<path d="M312.595 405.349C310.605 375.508 306.427 314.036 305.632 306.874C305.432 305.078 305.458 298.367 305.632 288.659C306.125 261.138 307.81 209.536 308.936 177.588C309.045 174.491 310.817 171.71 313.57 170.289L314.643 169.736C319.64 167.157 326.331 170.052 330.483 173.845C333.225 176.351 337.015 178.763 342.103 180.557C346.72 182.186 352.405 183.308 359.345 183.532C390.181 184.526 402.615 204.918 408.086 207.902C413.556 210.886 420.519 290.959 420.519 294.938C420.519 298.917 422.011 389.931 424.001 402.365C425.99 414.799 417.038 455.084 413.059 461.55C409.08 468.015 402.615 472.989 398.636 485.423C394.657 497.856 393.662 495.867 390.181 504.819C386.7 513.771 371.282 534.163 366.308 532.173C362.425 530.62 362.286 527.804 351.49 517.032C350.955 516.499 350.344 516.038 349.687 515.666L330.494 504.819C321.674 562.49 297.583 571.822 284.59 572.464C279.825 572.699 277.247 567.962 278.782 563.445C287.397 538.091 313.223 462.138 314.594 458.709C316.982 452.74 315.413 422.093 312.595 405.349Z" fill="#F8A251"/>
<path d="M134.897 485.423C150.238 477.69 167.884 446.817 176.565 430.825C177.789 428.57 178.784 427.543 180.061 429.768C184.61 437.689 197.265 458.693 209.92 461.924C226.711 466.211 232.24 453.36 231.896 458.709C231.804 460.138 201.188 500.507 187.413 511.225C177.211 519.162 161.958 574.051 154.134 606.438C153.122 610.628 149.191 613.437 144.901 613.011L108.175 609.364C104.505 609 101.458 606.335 100.898 602.689C99.5004 593.601 98.6288 580.217 102.03 571.6C107.389 558.024 114.177 495.867 134.897 485.423Z" fill="#F8A251"/>
<path d="M330.494 504.819C321.674 562.49 297.583 571.822 284.59 572.463C279.825 572.699 277.247 567.962 278.782 563.445C287.397 538.091 313.223 462.138 314.594 458.709C316.982 452.74 315.413 422.093 312.595 405.349C310.605 375.508 306.427 314.036 305.632 306.874C305.432 305.078 305.458 298.367 305.632 288.659M330.494 504.819C333.352 498.469 381.554 358.468 383.544 346.532C385.533 334.596 379.971 292.174 379.971 282.227C379.971 272.28 388.097 344.945 379.971 359.235C371.846 373.525 360.845 445.922 330.494 504.819ZM330.494 504.819L349.687 515.666C350.344 516.038 350.955 516.499 351.49 517.032C362.286 527.804 362.425 530.62 366.308 532.173C371.282 534.163 386.7 513.771 390.181 504.819C393.662 495.867 394.657 497.856 398.636 485.423C402.615 472.989 409.08 468.015 413.059 461.55C417.038 455.084 425.99 414.799 424.001 402.365C422.011 389.931 420.519 298.917 420.519 294.938C420.519 290.959 413.556 210.886 408.086 207.902C402.615 204.918 390.181 184.526 359.345 183.532C352.405 183.308 346.72 182.186 342.103 180.557M305.632 288.659C306.125 261.138 307.81 209.536 308.936 177.588C309.045 174.491 310.817 171.71 313.57 170.289L314.643 169.736C319.64 167.157 326.331 170.052 330.482 173.845C333.225 176.351 337.015 178.763 342.103 180.557M305.632 288.659C307.689 284.706 313.076 281.101 318.167 298.303C324.531 319.805 341.031 299.378 342.103 288.659C342.947 280.22 345.705 245.947 347.041 229.084C347.084 228.542 347.074 228.01 347.013 227.469L342.103 183.532V180.557M131.062 210.886C128.575 221.827 78.8404 253.16 75.8563 255.15C72.8723 257.139 5.23277 315.826 5.23277 319.805C5.23277 323.784 -7.69831 342.186 18.1638 355.117C37.0104 364.54 87.5508 389.26 116.706 403.489C121.037 405.603 126.248 403.727 128.251 399.344L145.046 362.605C146.959 358.421 145.233 353.476 141.131 351.394C116.718 339.003 78.9785 319.805 79.3378 319.805C79.7357 319.805 57.6202 316.821 46.5127 315.329L81.3272 317.318C93.7609 318.313 119.126 319.706 121.115 317.318C122.127 316.104 123.953 315.525 125.81 315.292C128.751 314.923 131.283 316.963 132.469 319.68C141.351 340.042 159.844 383.049 163.835 390.831C170.98 404.764 188.434 429.334 192.772 432.987C199.412 438.578 193.407 446.346 201.834 452.579C202.213 452.86 202.589 453.156 202.931 453.481L207.436 457.772C209.031 459.291 211.148 460.138 213.35 460.138H222.759C227.389 460.138 231.183 456.462 231.329 451.834L235.903 306.791C235.962 304.929 235.386 303.109 234.863 301.321C230.841 287.561 234.275 238.609 212.074 218.011C211.279 217.273 210.589 216.425 210.092 215.462V215.462C206.488 208.466 196.003 210.007 194.533 217.738C190.568 238.591 185.781 263.223 184.994 266.422C177.731 295.922 184.994 350.617 184.994 355.117C184.994 358.458 185.274 375.126 179.847 379.611C179.034 380.283 177.834 380.485 177.186 379.653C168.481 368.486 177.678 239.026 174.018 210.889C173.646 208.026 174.026 204.985 175.145 202.324C182.602 184.576 146.705 199.674 143.026 201.436C136.741 204.064 131.888 207.252 131.062 210.886ZM134.897 485.423C150.238 477.69 167.884 446.817 176.565 430.825C177.789 428.57 178.784 427.543 180.061 429.768C184.61 437.689 197.265 458.693 209.92 461.924C226.711 466.211 232.24 453.36 231.896 458.709C231.804 460.138 201.188 500.507 187.413 511.225C177.211 519.162 161.958 574.051 154.134 606.438C153.122 610.628 149.191 613.437 144.901 613.011L108.175 609.364C104.505 609 101.458 606.335 100.898 602.689C99.5004 593.601 98.6288 580.217 102.03 571.6C107.389 558.024 114.177 495.867 134.897 485.423Z" stroke="#240E01" stroke-width="4"/>
<path d="M162.163 410.122C159.541 403.336 142.949 391.422 134.494 388.922L147.044 358.678L163.12 382.971C189.914 425.484 198.488 419.054 200.631 433.344C202.486 445.709 216.35 457.279 215.993 465.853C215.636 474.427 200.988 467.64 190.985 448.348C186.54 439.775 142.383 486.508 140.97 480.501C139.364 473.672 147.044 452.278 147.044 452.278C145.972 446.562 168.236 425.841 162.163 410.122Z" fill="#E8C4A4" stroke="#240E01" stroke-width="4"/>
<path d="M186.494 108.921C187.323 121.355 204.57 158.067 232.024 165.627C266.341 175.077 260.87 177.563 271.315 172.59C281.759 167.616 293.695 151.701 294.69 147.225C295.685 142.749 306.129 124.844 303.642 107.935C301.155 91.0246 294.478 63.9108 291.494 61.9214" stroke="#351F12" stroke-width="4" stroke-linecap="round"/>
<path d="M211.144 107.381C207.098 107.959 208.013 103.768 208.977 101.6C209.497 100.155 214.035 97.9873 216.202 97.9873C218.37 97.9873 219.093 101.6 219.093 103.045C219.093 104.49 216.202 106.658 211.144 107.381Z" fill="#101223"/>
<path d="M255.906 86.4926C251.859 87.0707 252.775 82.8797 253.738 80.712C254.259 79.2669 258.796 77.0991 260.964 77.0991C263.132 77.0991 263.854 80.712 263.854 82.1572C263.854 83.6023 260.964 85.77 255.906 86.4926Z" fill="#101223"/>
<path d="M249.928 89.0355C249.597 83.2331 253.41 72.7224 271.314 77.0991M227.05 99.977C221.414 96.8271 208.648 94.1083 202.68 108.432" stroke="#141416" stroke-width="2.98409" stroke-linecap="round"/>
<path d="M266.838 143.744C257.389 153.69 237.495 142.749 236.997 142.749C236.202 139.168 262.528 129.32 275.791 124.844C275.956 127.828 274.398 135.786 266.838 143.744Z" fill="#141416"/>
<path d="M244.641 142.22C240.495 136.421 239.982 139.267 239.982 138.77C239.982 134.294 271.315 124.844 271.812 124.844C272.309 124.844 273.652 128.262 272.495 130.921C269.794 137.134 245.99 144.106 244.641 142.22Z" fill="#F5F6F9"/>
<path d="M229.37 140.376C228.335 140.743 227.792 141.88 228.159 142.916C228.526 143.951 229.663 144.493 230.699 144.127C232.294 143.561 234.043 142.764 235.834 141.85L234.934 143.11L237.212 144.081C242.955 146.531 251.238 148.996 258.95 147.342C262.862 146.504 266.614 144.606 269.751 141.162C272.811 137.803 275.195 133.074 276.651 126.662C276.667 126.655 276.684 126.649 276.7 126.643C278.805 125.823 280.911 124.417 281.671 121.948C281.994 120.898 281.405 119.784 280.354 119.461C279.304 119.138 278.191 119.728 277.868 120.778C277.633 121.541 276.894 122.297 275.256 122.935C273.646 123.562 271.546 123.92 269.312 124.125C267.46 124.295 265.631 124.351 264.03 124.401C263.712 124.411 263.404 124.42 263.106 124.431C262.231 124.46 261.407 124.496 260.754 124.567C260.431 124.601 260.085 124.651 259.767 124.733C259.542 124.79 258.946 124.95 258.469 125.427C256.9 126.996 255.655 127.683 254.742 128.002C253.834 128.32 253.125 128.326 252.415 128.326C251.971 128.326 251.565 128.439 251.293 128.529C250.989 128.63 250.672 128.763 250.359 128.908C249.734 129.199 248.994 129.599 248.194 130.057C246.983 130.75 245.526 131.635 243.959 132.589C243.455 132.895 242.94 133.208 242.418 133.525C238.033 136.179 233.122 139.047 229.37 140.376ZM237.992 142.251L236.758 141.37C236.758 141.37 236.758 141.37 236.759 141.37C236.995 141.539 237.376 141.812 237.992 142.251ZM239.606 143.415C239.605 143.415 239.606 143.414 239.608 143.411L239.607 143.412L239.606 143.415Z" stroke="#B83F3F" stroke-width="3.97879" stroke-linecap="round"/>
<circle cx="269.938" cy="466.568" r="10.4674" fill="#F5F6F9" stroke="#101223" stroke-width="3.35816"/>
<rect x="247.538" y="446.312" width="6.93066" height="34.0817" fill="#D9D9D9" stroke="#101223" stroke-width="3.35816"/>
<rect x="285.407" y="444.169" width="6.93066" height="34.0817" fill="#D9D9D9" stroke="#101223" stroke-width="3.35816"/>
<path d="M289.681 67.5157C289.688 67.4692 289.694 67.4225 289.699 67.3756C292.169 72.8995 294.905 80.0159 297.754 89.1343C302.316 103.732 303.489 114.544 303.079 122.19C302.667 129.885 300.663 134.217 299.067 136.068C298.368 136.878 297.669 138.029 297.608 139.467C297.216 148.67 296.988 162.96 297.541 177.204C298.092 191.386 299.423 205.741 302.226 214.949C305.596 226.022 305.239 235.398 303.968 243.203C303.388 246.766 302.62 249.99 301.916 252.949C301.844 253.249 301.774 253.546 301.704 253.841C300.958 256.984 300.288 259.93 300.153 262.505C299.864 267.991 300.571 280.051 301.291 289.885C301.656 294.859 308.339 296.068 310.359 291.45C313.111 285.16 316.199 277.793 318.755 271.027C321.291 264.315 323.37 258.028 324.019 253.973C325.025 247.686 326.891 231.184 328.379 215.426C329.124 207.536 329.777 199.807 330.181 193.606C330.383 190.506 330.524 187.775 330.583 185.59C330.641 183.457 330.625 181.7 330.474 180.639C330.415 180.227 330.358 179.837 330.304 179.466C330.168 178.545 330.05 177.739 329.965 177C329.846 175.962 329.815 175.218 329.872 174.665C329.927 174.135 330.051 173.92 330.137 173.816C330.216 173.72 330.411 173.539 330.952 173.371C330.995 173.372 331.107 173.373 331.311 173.395C331.674 173.434 332.173 173.52 332.813 173.66C334.089 173.939 335.771 174.398 337.747 174.991C341.693 176.175 346.669 177.848 351.631 179.552C353.365 180.147 355.099 180.747 356.784 181.33C359.901 182.407 362.85 183.427 365.321 184.255C367.225 184.892 368.877 185.426 370.124 185.789C370.745 185.97 371.296 186.117 371.743 186.215C371.965 186.263 372.194 186.306 372.409 186.332C372.568 186.351 372.933 186.391 373.327 186.312C373.475 186.283 373.879 186.192 374.271 185.878C374.797 185.457 375.121 184.769 375.027 184.015C374.957 183.459 374.681 183.087 374.583 182.961C374.454 182.795 374.321 182.67 374.235 182.594C373.944 182.334 373.49 182.031 373.086 181.761L373.053 181.738C372.994 181.699 372.934 181.659 372.871 181.617C371.933 180.99 370.543 180.062 368.757 178.679C364.951 175.731 359.299 170.678 352.671 162.194C339.41 145.221 322.189 114.449 308.066 59.196L308.034 59.0685L307.985 58.9464C302.851 46.155 292.001 28.3135 276.003 16.2418C259.904 4.09428 238.562 -2.20414 212.884 8.38726C212.765 8.43622 212.635 8.46457 212.506 8.46936C200.686 8.90586 177.155 17.381 171.863 47.9109C166.096 81.1837 166.233 101.9 166.337 117.602C166.35 119.595 166.363 121.506 166.363 123.352C166.363 136.503 167.357 177.219 167.854 195.964C167.357 214.12 166.637 241.745 166.09 265.685C165.545 289.57 165.167 309.968 165.372 313.457C165.425 314.356 165.501 315.835 165.6 317.764C165.941 324.379 166.554 336.288 167.437 348.272C168.007 356.016 168.692 363.825 169.493 370.297C169.893 373.532 170.325 376.455 170.79 378.88C171.248 381.264 171.762 383.304 172.367 384.69L174.2 383.891L172.367 384.69C173.125 386.429 174.834 386.958 176.101 386.958H185.273C186.563 386.958 187.397 386.148 187.835 385.419C188.245 384.736 188.457 383.918 188.583 383.168C188.659 382.716 188.714 382.224 188.751 381.702C190.622 383.066 193.39 383.012 195.215 381.267C196.119 380.404 196.984 379.625 197.686 379.074C198.04 378.796 198.31 378.61 198.494 378.502C198.512 378.492 198.528 378.483 198.542 378.475C199.127 378.378 199.533 378.045 199.751 377.792C199.986 377.519 200.096 377.248 200.143 377.119C200.241 376.849 200.276 376.594 200.292 376.459C200.328 376.151 200.336 375.78 200.333 375.409C200.328 374.641 200.274 373.556 200.184 372.229C200.003 369.56 199.667 365.757 199.231 361.198C198.694 355.573 198.003 348.757 197.26 341.437C196.799 336.89 196.318 332.148 195.842 327.378C194.599 314.913 193.389 302.238 192.645 292.217C192.273 287.204 192.019 282.88 191.935 279.59C191.893 277.943 191.894 276.581 191.94 275.534C191.99 274.418 192.086 273.86 192.144 273.687C193.401 269.916 196.145 260.932 198.574 252.336C199.79 248.037 200.931 243.814 201.771 240.377C202.191 238.66 202.539 237.122 202.783 235.86C203.019 234.646 203.188 233.542 203.188 232.769C203.188 230.661 202.754 222.116 202.264 213.161C202.248 212.873 202.332 212.701 202.443 212.573C202.575 212.421 202.803 212.277 203.1 212.211C203.397 212.145 203.672 212.179 203.868 212.265C204.035 212.339 204.192 212.467 204.304 212.736C207.125 219.506 210.247 226.607 213.175 232.532C214.638 235.494 216.064 238.184 217.39 240.402C218.695 242.586 219.974 244.436 221.16 245.622C223.098 247.56 225.093 249.049 227.024 250.489L227.16 250.59C229.151 252.076 231.102 253.542 233.107 255.517C237.077 259.429 241.417 265.499 246.069 277.743C253.258 296.661 263.194 338.468 267.807 359.451C268.349 361.917 270.696 363.573 273.229 363.184C277.215 362.571 282.316 361.622 286.539 360.452C288.641 359.871 290.606 359.213 292.128 358.481C292.886 358.116 293.608 357.698 294.197 357.211C294.758 356.747 295.397 356.058 295.635 355.105C295.766 354.583 295.709 354.061 295.669 353.767C295.619 353.402 295.532 352.993 295.424 352.565C295.208 351.704 294.87 350.612 294.441 349.344C293.58 346.8 292.303 343.408 290.753 339.471C287.651 331.59 283.415 321.422 279.125 311.256C276.979 306.171 274.818 301.083 272.776 296.278L272.415 295.427C270.507 290.938 268.713 286.715 267.142 282.993C265.472 279.035 264.058 275.652 263.032 273.122C262.519 271.855 262.107 270.814 261.81 270.025C261.661 269.63 261.545 269.309 261.461 269.061C261.419 268.937 261.387 268.838 261.364 268.762C261.352 268.724 261.344 268.694 261.338 268.673C261.332 268.65 261.33 268.641 261.33 268.642C261.051 267.387 259.91 263.974 258.437 259.608C258.247 259.046 258.051 258.465 257.849 257.868C256.454 253.737 254.789 248.809 253.136 243.715C251.244 237.883 249.375 231.858 247.95 226.589C246.509 221.263 245.574 216.891 245.461 214.28C245.069 205.265 245.298 196.335 245.411 191.944C245.441 190.787 245.463 189.944 245.463 189.5C245.463 189.081 245.384 188.448 245.288 187.799C245.184 187.099 245.036 186.225 244.854 185.243C244.491 183.277 243.988 180.838 243.421 178.413C242.856 175.996 242.22 173.557 241.589 171.609C241.275 170.638 240.948 169.745 240.616 169.021C240.45 168.66 240.267 168.305 240.064 167.989C239.878 167.699 239.595 167.313 239.192 167.011C238.83 166.74 238.352 166.539 238.043 166.413C237.662 166.257 237.184 166.08 236.654 165.886C236.496 165.829 236.332 165.769 236.162 165.707C235.163 165.344 233.942 164.899 232.537 164.343C229.255 163.044 225.02 161.154 220.641 158.408C211.887 152.918 202.652 144.068 199.243 129.731C199.149 129.336 199.006 128.935 198.797 128.546C196.731 124.68 193.826 119.285 190.915 113.953L190.931 113.96L189.702 111.729C190.201 111.452 190.654 111.087 191.033 110.65C193.298 108.04 196.4 104.661 199.612 101.558C202.857 98.4221 206.091 95.6903 208.634 94.2597C212.932 91.8422 217.831 89.8896 221.414 88.6495C224.457 87.5964 225.816 83.9207 224.073 81.1511C222.074 77.9759 219.851 74.1129 218.083 70.3899C219.872 73.0981 221.774 75.7516 223.63 77.9726C225.193 79.842 226.796 81.4946 228.333 82.6083C229.752 83.6355 231.691 84.623 233.651 83.9696C235.384 83.3918 237.42 82.2546 239.439 80.9947C241.285 79.8426 243.243 78.5063 245.103 77.2373C245.306 77.0986 245.508 76.9607 245.708 76.8239C247.773 75.4165 249.667 74.14 251.222 73.2442C252.001 72.7957 252.634 72.4776 253.121 72.289C253.473 72.1522 253.638 72.1282 253.665 72.1218C253.979 72.1647 254.475 72.1806 255 71.9489C255.687 71.6451 256.1 71.0639 256.258 70.4712C256.39 69.9737 256.332 69.5299 256.281 69.2708C256.225 68.9849 256.133 68.7172 256.041 68.4898C255.697 67.6325 255.019 66.5308 254.271 65.4089C253.364 64.0472 252.181 62.4059 250.96 60.7233C254.445 63.6089 257.699 66.3709 259.389 67.9701C260.471 68.9934 262.01 69.637 263.646 69.4639C267.39 69.0677 272.504 68.6538 276.982 68.5671C279.225 68.5237 281.262 68.5635 282.867 68.7185C283.671 68.7961 284.325 68.8988 284.823 69.02C285.069 69.0801 285.256 69.1396 285.391 69.1929C285.53 69.248 285.577 69.2821 285.57 69.2766C285.886 69.5022 286.417 69.8189 287.1 69.8595C287.953 69.9102 288.691 69.5138 289.145 68.9005C289.512 68.4046 289.631 67.8602 289.681 67.5157ZM198.637 378.429C198.637 378.43 198.627 378.434 198.608 378.441C198.627 378.432 198.637 378.428 198.637 378.429ZM287.895 66.0216C287.893 66.0207 287.892 66.0197 287.891 66.0188C287.911 66.0312 287.913 66.0346 287.895 66.0216Z" fill="#240E01" stroke="#240E01" stroke-width="4" stroke-linecap="round"/>
</svg>
