<svg width="632" height="559" viewBox="0 0 632 559" fill="none" xmlns="http://www.w3.org/2000/svg">
<line x1="3.20477" y1="186.945" x2="138.985" y2="556.013" stroke="#141416" stroke-width="0.856752"/>
<line y1="-0.428376" x2="519.373" y2="-0.428376" transform="matrix(-0.938394 0.345568 -0.342741 -0.93943 487.622 4.91064)" stroke="#141416" stroke-width="0.856752"/>
<line x1="266.716" y1="86.8648" x2="402.497" y2="455.933" stroke="#141416" stroke-width="0.856752"/>
<line y1="-0.428376" x2="519.373" y2="-0.428376" transform="matrix(-0.938394 0.345568 -0.342741 -0.93943 587.874 268.36)" stroke="#141416" stroke-width="0.856752"/>
<line x1="40.9347" y1="172.877" x2="176.715" y2="541.946" stroke="#141416" stroke-width="0.856752"/>
<line y1="-0.428376" x2="519.373" y2="-0.428376" transform="matrix(-0.938394 0.345568 -0.342741 -0.93943 501.641 42.6589)" stroke="#141416" stroke-width="0.856752"/>
<line x1="304.446" y1="72.7969" x2="440.227" y2="441.865" stroke="#141416" stroke-width="0.856752"/>
<line y1="-0.428376" x2="519.373" y2="-0.428376" transform="matrix(-0.938394 0.345568 -0.342741 -0.93943 601.893 306.108)" stroke="#141416" stroke-width="0.856752"/>
<line x1="78.6647" y1="158.81" x2="214.445" y2="527.878" stroke="#141416" stroke-width="0.856752"/>
<line y1="-0.428376" x2="519.373" y2="-0.428376" transform="matrix(-0.938394 0.345568 -0.342741 -0.93943 515.659 80.4072)" stroke="#141416" stroke-width="0.856752"/>
<line x1="342.176" y1="58.729" x2="477.957" y2="427.797" stroke="#141416" stroke-width="0.856752"/>
<line y1="-0.428376" x2="519.373" y2="-0.428376" transform="matrix(-0.938394 0.345568 -0.342741 -0.93943 615.912 343.856)" stroke="#141416" stroke-width="0.856752"/>
<line x1="116.095" y1="143.939" x2="251.876" y2="513.007" stroke="#141416" stroke-width="0.856752"/>
<line y1="-0.428376" x2="519.373" y2="-0.428376" transform="matrix(-0.938394 0.345568 -0.342741 -0.93943 530.739 117.761)" stroke="#141416" stroke-width="0.856752"/>
<line x1="379.607" y1="43.8584" x2="515.387" y2="412.927" stroke="#141416" stroke-width="0.856752"/>
<line y1="-0.428376" x2="519.373" y2="-0.428376" transform="matrix(-0.938394 0.345568 -0.342741 -0.93943 629.171 375.486)" stroke="#141416" stroke-width="0.856752"/>
<line x1="153.825" y1="129.871" x2="289.606" y2="498.939" stroke="#141416" stroke-width="0.856752"/>
<line y1="-0.428376" x2="519.373" y2="-0.428376" transform="matrix(-0.938394 0.345568 -0.342741 -0.93943 544.757 155.509)" stroke="#141416" stroke-width="0.856752"/>
<line x1="417.337" y1="29.7906" x2="553.118" y2="398.859" stroke="#141416" stroke-width="0.856752"/>
<line x1="191.855" y1="116.606" x2="327.635" y2="485.674" stroke="#141416" stroke-width="0.856752"/>
<line y1="-0.428376" x2="519.373" y2="-0.428376" transform="matrix(-0.938394 0.345568 -0.342741 -0.93943 557.715 193.652)" stroke="#141416" stroke-width="0.856752"/>
<line x1="455.366" y1="16.5257" x2="591.147" y2="385.594" stroke="#141416" stroke-width="0.856752"/>
<line x1="228.986" y1="100.933" x2="364.767" y2="470.001" stroke="#141416" stroke-width="0.856752"/>
<line y1="-0.428376" x2="519.373" y2="-0.428376" transform="matrix(-0.938394 0.345568 -0.342741 -0.93943 573.855 230.611)" stroke="#141416" stroke-width="0.856752"/>
<line x1="492.497" y1="0.852092" x2="628.278" y2="369.92" stroke="#141416" stroke-width="0.856752"/>
</svg>
