<svg xmlns="http://www.w3.org/2000/svg" width="290" height="722" fill="none" viewBox="0 0 290 722"><path fill="#395E3D" d="M190.794 390.369C168.665 409.873 148.798 393.415 141.631 382.748C148.19 374.137 163.66 356.54 173.065 355.044C182.47 353.549 203.891 364.673 213.426 370.423L190.794 390.369Z"/><path stroke="#141416" stroke-linecap="round" stroke-width="5.472" d="M125.849 530.754C127.217 393.506 136.519 110.528 162.783 76.6035"/><path fill="#976335" d="M243.6 389.579C248.192 372.743 106.489 382.564 35.0635 389.579C51.6443 415.726 95.9024 474.524 56.1082 492.891C6.36558 515.849 -29.9846 609.595 35.0635 680.382C100.112 751.17 232.121 722.472 276.124 657.424C311.326 605.386 274.211 500.543 224.468 485.238C174.725 469.933 239.008 406.415 243.6 389.579Z"/><path fill="#395E3D" d="M184.217 11.5809C152.986 21.9491 156.884 53.9245 163.73 71.603C164.564 73.7579 166.759 75.0234 169.054 74.7554C183.019 73.1246 206.518 68.389 212.745 59.3723C219.023 50.2816 219.371 21.1909 218.648 4.41563C218.541 1.93644 218.135 0.320388 215.78 1.10226L184.217 11.5809Z"/><path fill="#395E3D" d="M91.8178 84.2201C105.229 114.888 131.19 111.068 145.316 104.116C147.422 103.079 148.408 100.692 147.832 98.4162C144.297 84.4414 136.651 60.9364 128.027 54.8366C119.419 48.7478 95.0358 48.8111 80.8314 49.7825C78.4783 49.9434 76.9464 50.2117 77.8914 52.3728L91.8178 84.2201Z"/><path fill="#395E3D" d="M200.949 131.313C179.066 156.232 159.343 148.685 149.976 139.917C148.257 138.308 148.136 135.704 149.441 133.745C157.477 121.685 172.404 101.716 181.767 97.7781C191.019 93.8869 210.848 98.3829 222.293 101.914C224.411 102.567 225.791 103.023 224.328 104.688L200.949 131.313Z"/><path fill="#395E3D" d="M197.69 207.796C172.669 229.849 142.009 205.766 142.787 199.957C143.566 194.147 167.787 170.427 178.329 168.632C188.872 166.837 223.392 178.821 223.281 185.243C223.17 191.664 222.712 185.744 197.69 207.796Z"/><path fill="#395E3D" d="M181.271 227.409C146.343 227.127 138.995 253.252 139.643 269.44C139.737 271.787 141.515 273.657 143.829 274.058C158.589 276.615 184.328 279.342 193.822 273.781C203.295 268.232 213.625 245.164 218.718 231.422C219.535 229.217 219.978 227.721 217.626 227.702L181.271 227.409Z"/><path fill="#395E3D" d="M182.586 327.445C164.403 343.47 147.747 335.216 138.409 325.845C135.103 322.527 135.309 317.304 138.345 313.736C145.964 304.781 157.345 293.314 164.857 292.12C172.378 290.923 187.582 297.798 198.248 303.54C202.453 305.803 203.673 308.859 200.091 312.016L182.586 327.445Z"/><path fill="#395E3D" d="M92.6078 121.205C126.452 118.161 135.812 148.024 136.545 166.471C136.637 168.793 135.098 170.824 132.866 171.472C118.938 175.518 94.5736 180.579 84.9563 174.986C75.2873 169.363 63.1087 143.618 56.9568 128.392C56.0392 126.121 55.664 124.528 58.1037 124.308L92.6078 121.205Z"/><path fill="#395E3D" d="M102.192 193.994C121.436 191.993 127.623 206.3 128.677 216.398C128.92 218.725 127.346 220.782 125.087 221.394C116.541 223.712 103.19 226.302 97.711 223.539C92.2225 220.772 85.3555 208.33 81.4321 199.989C80.4128 197.822 80.5194 196.246 82.9014 195.999L102.192 193.994Z"/><path fill="#395E3D" d="M70.7458 284.577C88.0464 307.914 111.989 297.595 124.257 287.719C126.07 286.26 126.554 283.752 125.538 281.658C120.031 270.312 109.417 252.151 100.469 249.141C91.4751 246.115 68.6731 252.595 55.3869 257.234C53.083 258.039 51.7563 258.962 53.2096 260.923L70.7458 284.577Z"/><path fill="#395E3D" d="M82.0403 345.073C98.6475 366.007 118.645 357.566 128.908 348.929C130.7 347.421 131.069 344.864 129.94 342.812C124.263 332.495 113.757 316.235 105.736 313.439C97.7102 310.641 78.4862 316.045 67.0512 320.063C64.7989 320.855 63.5608 321.778 65.0445 323.648L82.0403 345.073Z"/></svg>