<svg width="380" height="379" viewBox="0 0 380 379" fill="none" xmlns="http://www.w3.org/2000/svg">
<g clip-path="url(#clip0_212_850)">
<rect x="0.836548" y="0.674316" width="379" height="377.833" rx="16" fill="white"/>
<rect x="1.83667" y="0.674316" width="376" height="376" fill="#A45539"/>
<path d="M101.837 0.674569L0.836548 0.674419C0.836548 16.6744 30.7366 115.874 24.3366 146.674C16.3366 185.174 58.8365 365.174 62.3365 377.174C78.3365 377.174 319.337 380.174 333.837 377.174C348.337 374.174 346.835 315.628 351.337 291.174C373.337 171.674 369.337 71.6743 379.337 0.67454C334.337 0.674037 319.837 0.67454 293.337 0.67454L101.837 0.674569Z" fill="#240E01"/>
<path d="M127.651 104.938C161.782 97.4623 204.822 76.0262 248.982 93.4632C293.142 110.9 331.148 207.877 301.219 242.249C271.289 276.621 281.108 269.786 261.791 299.948C242.473 330.109 204.649 329.403 149.68 309.363C94.7112 289.324 86.3611 233.915 78.9183 180.461C71.4755 127.007 85.2762 114.219 127.651 104.938Z" fill="#FAFAFA"/>
<path d="M172.668 93.3684C211.321 95.163 265.037 85.4587 303.821 114.794C342.605 144.13 342.037 251.059 296.622 277.205C251.207 303.35 264.267 299.199 231.651 324.022C199.036 348.846 159.924 337.898 110.957 303.042C61.9896 268.186 76.2379 210.71 90.6214 155.428C105.005 100.147 124.679 91.1404 172.668 93.3684Z" stroke="#FDEFE4" stroke-width="1.68942"/>
<rect x="174.39" y="118.476" width="16.8942" height="20.2731" rx="4.50513" fill="#E8C4A4"/>
<rect x="174.39" y="148.885" width="16.8942" height="20.2731" rx="4.50513" fill="#E8C4A4"/>
<path d="M249.933 205.164L183.958 228.319C180.274 229.612 179.867 234.659 183.295 236.526L248.045 271.784C249.837 272.76 252.065 272.412 253.447 270.912C277.24 245.083 278.515 230.128 254.544 206.198C253.339 204.995 251.539 204.6 249.933 205.164Z" fill="#D79267"/>
<path d="M104.138 176.793L152.3 207.142C155.604 209.223 159.81 206.404 159.14 202.558L146.549 130.227C146.175 128.079 144.322 126.519 142.154 126.747C134.492 127.553 117.797 131.177 118.349 147.451C118.684 157.329 112.666 162.546 106.17 165.302C101.998 167.071 100.304 174.378 104.138 176.793Z" fill="#D79267"/>
<path d="M92.0929 184.926H84.0057C79.2067 184.926 75.0236 188.192 73.8597 192.848L71.768 201.215C70.1178 207.815 75.1102 214.21 81.9141 214.21H97.4714C105.746 214.21 110.743 205.056 106.269 198.096L100.89 189.729C98.9659 186.736 95.6515 184.926 92.0929 184.926Z" fill="#B83F3F"/>
<path d="M179.769 267.398L173.52 272.531C169.811 275.577 168.652 280.756 170.707 285.092L174.401 292.885C177.315 299.033 185.231 300.806 190.489 296.488L202.511 286.614C208.905 281.362 206.958 271.117 199.083 268.578L189.616 265.526C186.229 264.434 182.519 265.14 179.769 267.398Z" fill="#B83F3F"/>
<path d="M278.929 190.61L275.135 193.726C272.884 195.575 272.18 198.718 273.428 201.35L275.67 206.081C277.439 209.813 282.244 210.889 285.436 208.268L292.733 202.274C296.615 199.086 295.432 192.867 290.652 191.326L284.906 189.474C282.85 188.811 280.598 189.239 278.929 190.61Z" fill="#B83F3F"/>
<path d="M156.164 105.402L152.371 108.518C150.12 110.367 149.416 113.51 150.663 116.142L152.905 120.873C154.674 124.605 159.48 125.681 162.671 123.06L169.969 117.066C173.85 113.878 172.668 107.659 167.887 106.118L162.141 104.266C160.085 103.603 157.833 104.031 156.164 105.402Z" fill="#B83F3F"/>
<path d="M227.057 87.8772L178.3 205.873C176.803 209.495 180.326 213.169 184.008 211.825L321.003 161.827C324.338 160.61 325.02 156.194 322.208 154.027L233.971 86.0292C231.62 84.2177 228.19 85.1344 227.057 87.8772Z" fill="#F8A251"/>
<path d="M269.007 144.943L180.038 204.98C175.995 207.708 179.174 213.961 183.76 212.303L301.352 169.773L322.138 161.636C326.004 160.122 325.483 154.494 321.405 153.716L272.098 144.308C271.024 144.103 269.913 144.331 269.007 144.943Z" fill="#A45539"/>
<path d="M169.515 213.246L52.7177 229.134C50.8386 229.39 49.285 230.795 49.0955 232.682C45.8649 264.851 97.9254 299.402 128.705 314.905C130.998 316.06 133.75 314.998 134.752 312.635L174.269 219.469C175.634 216.252 172.976 212.775 169.515 213.246Z" fill="#F8A251"/>
<path d="M167.586 214.193L88.5298 284.749C86.6944 286.387 86.6874 289.263 88.5329 290.889C105.026 305.426 109.196 305.738 129.372 314.138C131.486 315.018 133.933 314.04 134.825 311.931L174.154 218.893C175.874 214.825 170.881 211.253 167.586 214.193Z" fill="#A45539"/>
<path d="M127.572 42.8472C127.054 41.4824 126.19 40.394 124.981 39.5821C123.789 38.7701 122.372 38.3641 120.731 38.3641C119.297 38.3641 118.001 38.701 116.844 39.3747C115.686 40.0485 114.771 41.0073 114.097 42.2511C113.423 43.495 113.086 44.9461 113.086 46.6046C113.086 48.2631 113.423 49.7142 114.097 50.9581C114.771 52.2019 115.686 53.1607 116.844 53.8345C118.001 54.4909 119.297 54.8192 120.731 54.8192C122.113 54.8192 123.365 54.5082 124.488 53.8863C125.611 53.2644 126.509 52.3833 127.183 51.2431C127.857 50.0856 128.228 48.7381 128.297 47.2006H120.187V46.2159H129.489V46.9933C129.438 48.6863 129.032 50.2066 128.272 51.5541C127.511 52.9016 126.475 53.9554 125.162 54.7155C123.849 55.4756 122.372 55.8557 120.731 55.8557C119.055 55.8557 117.543 55.467 116.196 54.6896C114.848 53.8949 113.795 52.7979 113.034 51.3986C112.274 49.982 111.894 48.384 111.894 46.6046C111.894 44.8079 112.274 43.2099 113.034 41.8106C113.795 40.394 114.848 39.297 116.196 38.5196C117.543 37.7249 119.055 37.3276 120.731 37.3276C122.683 37.3276 124.367 37.8199 125.784 38.8047C127.218 39.7721 128.263 41.1196 128.919 42.8472H127.572ZM148.927 55.6743L144.263 47.9262H144.159H140.272V55.6743H139.106V37.4831H144.108C146.129 37.4831 147.64 37.9581 148.642 38.9083C149.662 39.8585 150.171 41.1196 150.171 42.6917C150.171 44.091 149.774 45.2485 148.979 46.1641C148.202 47.0624 147.062 47.6152 145.559 47.8225L150.327 55.6743H148.927ZM140.272 46.9415H144.159C145.766 46.9415 146.967 46.5528 147.761 45.7754C148.556 44.998 148.953 43.9701 148.953 42.6917C148.953 39.9103 147.338 38.5196 144.108 38.5196H140.272V46.9415ZM170.035 51.0099H161.406L159.67 55.6743H158.4L165.086 37.8977H166.381L173.041 55.6743H171.771L170.035 51.0099ZM169.672 50.0252L165.734 39.4266L161.769 50.0252H169.672ZM193.071 42.6139C193.071 44.2206 192.57 45.4731 191.568 46.3714C190.566 47.2524 189.08 47.693 187.111 47.693H183.224V55.6743H182.058V37.4831H187.111C189.115 37.4831 190.609 37.9495 191.594 38.8824C192.579 39.798 193.071 41.0418 193.071 42.6139ZM187.111 46.6564C190.307 46.6564 191.905 45.3089 191.905 42.6139C191.905 41.2837 191.525 40.2731 190.765 39.5821C190.005 38.8738 188.787 38.5196 187.111 38.5196H183.224V46.6564H187.111ZM215.25 37.4831V55.6743H214.084V46.8637H203.46V55.6743H202.294V37.4831H203.46V45.879H214.084V37.4831H215.25ZM226.783 37.4831V55.6743H225.617V37.4831H226.783ZM236.422 46.6046C236.422 44.8079 236.793 43.2099 237.536 41.8106C238.296 40.394 239.333 39.2884 240.645 38.4937C241.976 37.699 243.461 37.3017 245.103 37.3017C247.176 37.3017 248.921 37.7854 250.337 38.7528C251.754 39.7203 252.79 41.0764 253.447 42.8212H252.099C251.581 41.4392 250.717 40.3508 249.508 39.5561C248.316 38.7442 246.847 38.3382 245.103 38.3382C243.703 38.3382 242.434 38.6751 241.293 39.3488C240.153 40.0053 239.255 40.9641 238.598 42.2252C237.942 43.4691 237.614 44.9289 237.614 46.6046C237.614 48.2631 237.942 49.7142 238.598 50.9581C239.255 52.1846 240.153 53.1348 241.293 53.8085C242.434 54.4823 243.703 54.8192 245.103 54.8192C246.847 54.8192 248.316 54.4218 249.508 53.6272C250.717 52.8152 251.581 51.7182 252.099 50.3361H253.447C252.79 52.081 251.754 53.4371 250.337 54.4046C248.921 55.372 247.176 55.8557 245.103 55.8557C243.461 55.8557 241.976 55.467 240.645 54.6896C239.333 53.8949 238.296 52.7979 237.536 51.3986C236.793 49.982 236.422 48.384 236.422 46.6046ZM268.438 55.8557C267.264 55.8557 266.236 55.6484 265.355 55.2338C264.474 54.8192 263.783 54.2577 263.282 53.5494C262.798 52.8411 262.522 52.0551 262.452 51.1913H263.67C263.809 52.1414 264.249 52.988 264.992 53.7308C265.752 54.4737 266.901 54.8451 268.438 54.8451C269.337 54.8451 270.114 54.681 270.771 54.3527C271.444 54.0245 271.963 53.5753 272.325 53.0052C272.688 52.4351 272.87 51.8046 272.87 51.1135C272.87 50.2325 272.654 49.5328 272.222 49.0146C271.807 48.4963 271.28 48.1076 270.641 47.8485C270.019 47.5893 269.173 47.3129 268.102 47.0192C266.927 46.7083 265.977 46.3973 265.251 46.0863C264.543 45.7754 263.938 45.3003 263.437 44.6611C262.953 44.0046 262.712 43.1149 262.712 41.992C262.712 41.1282 262.936 40.3422 263.385 39.6339C263.852 38.9083 264.508 38.3382 265.355 37.9236C266.201 37.509 267.177 37.3017 268.283 37.3017C269.89 37.3017 271.185 37.699 272.17 38.4937C273.155 39.2884 273.742 40.2644 273.932 41.4219H272.688C272.585 40.9555 272.351 40.4804 271.989 39.9967C271.643 39.513 271.142 39.1156 270.486 38.8047C269.846 38.4764 269.078 38.3123 268.179 38.3123C266.97 38.3123 265.951 38.6492 265.122 39.3229C264.292 39.9794 263.878 40.8605 263.878 41.9661C263.878 42.8472 264.094 43.5555 264.526 44.091C264.957 44.6093 265.484 45.0066 266.106 45.283C266.745 45.5422 267.601 45.8099 268.672 46.0863C269.864 46.4146 270.805 46.7342 271.496 47.0451C272.205 47.3388 272.801 47.8139 273.284 48.4704C273.785 49.1096 274.036 49.982 274.036 51.0876C274.036 51.8996 273.82 52.6684 273.388 53.3939C272.956 54.1195 272.317 54.7155 271.47 55.182C270.641 55.6311 269.63 55.8557 268.438 55.8557Z" fill="white"/>
</g>
<defs>
<clipPath id="clip0_212_850">
<rect x="0.836548" y="0.674316" width="379" height="377.833" rx="16" fill="white"/>
</clipPath>
</defs>
</svg>
