<svg width="379" height="377" viewBox="0 0 379 377" fill="none" xmlns="http://www.w3.org/2000/svg">
<g clip-path="url(#clip0_212_101)">
<rect x="1.5" y="0.59082" width="376" height="376" rx="16" fill="#240E01"/>
<path d="M260.5 170.091C260.5 220.625 208.139 234.591 156.5 234.591C104.861 234.591 73.5 220.625 73.5 170.091C73.5 119.557 115.361 78.5908 167 78.5908C218.639 78.5908 260.5 119.557 260.5 170.091Z" fill="#F8A251"/>
<path d="M206.622 225.349C228.48 180.331 163.981 114.17 129 86.7168C189.294 63.8819 238.636 84.0958 255.845 133.768C273.054 183.441 179.3 281.621 206.622 225.349Z" fill="#A45539"/>
<path d="M20.3257 134.674L7.95482 146.201C7.34584 146.769 7 147.564 7 148.396V152.82C7 154.385 8.20243 155.686 9.76211 155.811L51 159.091H56.916C59.4035 159.091 60.8104 156.238 59.296 154.264L50.204 142.417C48.6896 140.444 50.0965 137.591 52.584 137.591H54.4237C56.8139 137.591 58.2443 134.932 56.9271 132.938L46.5316 117.196C45.2392 115.239 47.1812 112.763 49.3899 113.552C51.6204 114.348 53.5646 111.821 52.2228 109.869L41.9697 94.9559C40.932 93.4464 38.7955 93.2113 37.4543 94.4589L22.4126 108.451C21.015 109.751 21.9349 112.091 23.8437 112.091C25.7273 112.091 26.6594 114.378 25.3123 115.695L15.0318 125.742C13.0235 127.704 15.0257 131.037 17.7017 130.186C20.4105 129.324 22.4054 132.736 20.3257 134.674Z" stroke="#FAFAFA" stroke-linecap="round"/>
<path d="M300.126 129.15L317.628 148.113L321.391 153.336C322.935 155.48 321.155 158.428 318.539 158.061L292.435 154.391C291.92 154.319 291.395 154.381 290.911 154.573L266.203 164.379C265.851 164.519 265.476 164.591 265.097 164.591H257.063C254.676 164.591 253.245 161.937 254.557 159.942L270.109 136.293C271.635 133.973 269.461 131.004 266.789 131.757L262.072 133.087C259.491 133.814 257.325 131.049 258.649 128.718L271.387 106.288C272.798 103.804 270.199 100.968 267.56 102.064C264.897 103.17 262.291 100.277 263.758 97.7953L276.609 76.0589C277.631 74.3298 280.031 74.0743 281.394 75.5492L299.77 95.4261C301.402 97.1912 300.15 100.054 297.746 100.054C295.374 100.054 294.11 102.85 295.677 104.631L309.781 120.659C311.839 122.998 309.409 126.535 306.488 125.454L303.372 124.301C300.414 123.207 297.988 126.832 300.126 129.15Z" stroke="#FAFAFA" stroke-linecap="round"/>
<path d="M327.35 123.434L320.691 130.785C319.486 132.49 320.904 134.81 322.972 134.514L330.423 133.447C330.947 133.372 331.482 133.437 331.973 133.635L341.245 137.384C341.582 137.521 341.942 137.591 342.306 137.591C344.547 137.591 345.898 135.11 344.683 133.227L340.499 126.744C339.69 125.491 340.868 123.904 342.302 124.316C343.687 124.714 344.86 123.236 344.158 121.978L339.433 113.5C338.861 112.475 339.909 111.308 340.99 111.765C342.08 112.226 343.13 111.035 342.536 110.011L338.549 103.14C337.53 101.383 335.097 101.126 333.732 102.629L327.913 109.042C327.254 109.769 327.769 110.934 328.751 110.934C329.72 110.934 330.241 112.072 329.607 112.805L324.277 118.977C323.332 120.071 324.471 121.703 325.824 121.193C327.194 120.677 328.332 122.35 327.35 123.434Z" stroke="#FAFAFA" stroke-linecap="round"/>
<path d="M355.168 106.135L349.542 116.008C348.594 118.241 350.72 120.55 353.023 119.789L359.939 117.505C360.501 117.319 361.105 117.304 361.676 117.461L371.749 120.235C372.163 120.349 372.596 120.373 373.02 120.305L373.152 120.284C375.427 119.919 376.459 117.231 375.011 115.438L368.846 107.797C367.848 106.561 368.895 104.746 370.464 104.989C371.983 105.225 373.038 103.518 372.147 102.266L365.374 92.7409C364.65 91.723 365.619 90.3638 366.817 90.7163C368.026 91.0719 368.995 89.6891 368.248 88.6744L362.685 81.1138C361.399 79.3658 358.74 79.5196 357.663 81.4041L352.82 89.8862C352.292 90.8105 353.07 91.9343 354.121 91.7659C355.158 91.5997 355.936 92.6947 355.437 93.619L350.876 102.07C350.131 103.45 351.703 104.921 353.031 104.087C354.375 103.243 355.954 104.756 355.168 106.135Z" stroke="#FAFAFA" stroke-linecap="round"/>
<path d="M92.4097 186.822C71.4108 158.194 26.2449 149.472 3.52758 148.461C1.8542 148.387 0.5 149.741 0.5 151.416V373.591C0.5 375.248 1.84315 376.591 3.50001 376.591H180.551C182.115 376.591 183.411 375.391 183.633 373.843C184.956 364.594 189.772 348.143 201.303 339.137C217.287 326.652 231.273 320.659 241.263 297.687C244.795 289.565 247.157 284.916 248.692 282.428C249.795 280.641 249.151 279.909 247.188 279.163L201.303 261.731C187.816 256.404 157.346 244.552 143.36 239.758C125.877 233.765 119.883 224.276 92.4097 186.822Z" fill="#D79267"/>
<path d="M220.284 195.312C216.398 197.643 198.653 218.112 189.564 228.881C189.08 229.455 188.406 229.822 187.665 229.938C184.82 230.382 177.82 231.663 179.824 233.266C182.321 235.263 183.92 235.363 186.317 237.76C189.314 240.756 210.294 252.242 216.788 253.741C223.281 255.239 267.238 270.22 271.234 270.22H306.2C312.194 270.22 326.18 265.726 338.668 249.745C347.172 238.862 363.037 241.201 372.704 244.807C374.79 245.585 377.177 244.146 377.211 241.919C377.931 195.374 377.5 113.449 377.5 109.591C377.5 107.045 353.653 120.403 347.159 127.894C340.666 135.385 313.692 129.392 309.197 135.884C304.701 142.376 285.22 142.376 277.228 147.869C269.236 153.363 256.748 154.861 251.254 169.343C245.759 183.826 243.761 186.822 241.263 186.822C238.766 186.822 225.279 192.315 220.284 195.312Z" fill="#D79267"/>
<path d="M241.263 339.137C233.888 339.137 230.894 360.404 230.143 373.498C230.045 375.192 231.407 376.591 233.104 376.591H374.13C375.787 376.591 377.13 375.248 377.13 373.591V297.687C377.13 295.091 368.1 299.091 366.5 305.091C364.5 312.591 338.668 317.091 323.5 308.591C308.332 300.091 251.254 339.137 241.263 339.137Z" fill="#D79267"/>
<path d="M264.519 293.778C265.262 292.084 265.982 290.42 266.647 288.869C274.891 267.072 288.554 237.091 320.5 237.091C368.021 237.091 352.671 235.763 373.194 224.357C375.143 223.273 377.5 224.715 377.5 226.945V293.124C377.5 294.318 376.77 295.38 375.832 296.119C372.529 298.724 369.106 304.59 365 311.091C359 320.591 342.5 311.091 327.5 311.091C312.5 311.091 296 315.091 283 323.091C275.146 327.924 254.409 338.986 245.244 343.053C243.279 343.925 241.933 342.396 242.774 340.417L257.879 304.876C257.959 304.686 258.057 304.509 258.174 304.339C259.668 302.165 262.103 298.299 264.519 293.778Z" fill="#A45539"/>
<path d="M94 311.091C119.539 320.82 151.324 353.557 168.301 368.795C170.613 370.872 168.843 376.091 165.735 376.091H3C1.34315 376.091 0 374.748 0 373.091V252.637C0 250.253 2.54796 248.959 4.30134 250.574C9.91954 255.749 18.7002 265.812 27.5 281.591C42 307.591 62.5 299.091 94 311.091Z" fill="#A45539"/>
<path d="M150.944 227.787C144.96 226.966 138.526 230.032 134.128 232.662C132.202 233.814 132.382 236.517 134.44 237.415C153.747 245.84 219.109 269.943 234.177 275.116C250.728 280.798 238.126 287.475 223.955 302.221C223.796 302.387 223.611 302.54 223.419 302.666C176.881 333.151 172.427 361.027 174.681 373.395C174.921 374.71 176.112 375.591 177.449 375.591H227.882C229.357 375.591 230.608 374.519 230.88 373.071C235.125 350.458 247.675 327.231 249.93 323.364C269.464 289.854 276.366 276.781 275.415 268.65C274.464 260.518 217.03 254.095 211.8 250.268C206.57 246.441 200.303 244.89 187.466 235.324C174.63 225.757 161.404 229.222 150.944 227.787Z" fill="#FAFAFA"/>
<path d="M75.791 28.3996V46.5908H74.6249V28.3996H75.791ZM87.3215 45.6061H94.0849V46.5908H86.1554V28.3996H87.3215V45.6061ZM103.989 45.6061H110.753V46.5908H102.823V28.3996H103.989V45.6061ZM120.553 28.3996V39.7756C120.553 41.8314 121.02 43.343 121.952 44.3104C122.885 45.2606 124.155 45.7357 125.762 45.7357C127.351 45.7357 128.604 45.2606 129.519 44.3104C130.435 43.3603 130.893 41.8487 130.893 39.7756V28.3996H132.059V39.7497C132.059 42.1164 131.489 43.8785 130.348 45.036C129.208 46.1935 127.679 46.7722 125.762 46.7722C123.844 46.7722 122.298 46.1935 121.123 45.036C119.966 43.8613 119.387 42.0992 119.387 39.7497V28.3996H120.553ZM147.543 46.7722C146.368 46.7722 145.34 46.5649 144.459 46.1503C143.578 45.7357 142.887 45.1742 142.386 44.4659C141.902 43.7576 141.626 42.9716 141.557 42.1078H142.775C142.913 43.058 143.353 43.9045 144.096 44.6473C144.856 45.3902 146.005 45.7616 147.543 45.7616C148.441 45.7616 149.218 45.5975 149.875 45.2692C150.549 44.941 151.067 44.4918 151.43 43.9217C151.793 43.3516 151.974 42.7211 151.974 42.0301C151.974 41.149 151.758 40.4493 151.326 39.9311C150.911 39.4128 150.385 39.0241 149.745 38.765C149.123 38.5058 148.277 38.2294 147.206 37.9357C146.031 37.6248 145.081 37.3138 144.355 37.0028C143.647 36.6919 143.042 36.2168 142.541 35.5776C142.058 34.9211 141.816 34.0314 141.816 32.9085C141.816 32.0447 142.04 31.2587 142.49 30.5504C142.956 29.8248 143.613 29.2547 144.459 28.8401C145.306 28.4255 146.282 28.2182 147.387 28.2182C148.994 28.2182 150.29 28.6155 151.274 29.4102C152.259 30.2049 152.846 31.1809 153.036 32.3384H151.793C151.689 31.872 151.456 31.3969 151.093 30.9132C150.747 30.4295 150.246 30.0321 149.59 29.7212C148.951 29.3929 148.182 29.2288 147.284 29.2288C146.074 29.2288 145.055 29.5657 144.226 30.2394C143.397 30.8959 142.982 31.777 142.982 32.8826C142.982 33.7637 143.198 34.472 143.63 35.0075C144.062 35.5258 144.589 35.9231 145.211 36.1995C145.85 36.4587 146.705 36.7264 147.776 37.0028C148.968 37.3311 149.91 37.6507 150.601 37.9616C151.309 38.2553 151.905 38.7304 152.389 39.3869C152.89 40.0261 153.14 40.8985 153.14 42.0041C153.14 42.8161 152.924 43.5849 152.492 44.3104C152.06 45.036 151.421 45.632 150.575 46.0985C149.745 46.5476 148.735 46.7722 147.543 46.7722ZM172.775 28.3996V29.3843H167.592V46.5908H166.426V29.3843H161.243V28.3996H172.775ZM191.462 46.5908L186.797 38.8427H186.694H182.807V46.5908H181.64V28.3996H186.642C188.663 28.3996 190.175 28.8747 191.177 29.8248C192.196 30.775 192.705 32.0361 192.705 33.6082C192.705 35.0075 192.308 36.165 191.513 37.0806C190.736 37.9789 189.596 38.5317 188.093 38.739L192.861 46.5908H191.462ZM182.807 37.858H186.694C188.3 37.858 189.501 37.4693 190.296 36.6919C191.09 35.9145 191.488 34.8866 191.488 33.6082C191.488 30.8268 189.872 29.4361 186.642 29.4361H182.807V37.858ZM212.569 41.9264H203.94L202.204 46.5908H200.934L207.62 28.8142H208.916L215.575 46.5908H214.306L212.569 41.9264ZM212.207 40.9417L208.268 30.3431L204.303 40.9417H212.207ZM234.646 28.3996V29.3843H229.464V46.5908H228.298V29.3843H223.115V28.3996H234.646ZM244.678 28.3996V46.5908H243.512V28.3996H244.678ZM263.153 46.7981C261.477 46.7981 259.966 46.4094 258.618 45.632C257.271 44.8373 256.217 43.7317 255.457 42.3151C254.697 40.8985 254.317 39.3005 254.317 37.5211C254.317 35.7244 254.697 34.1264 255.457 32.7271C256.217 31.3105 257.271 30.2135 258.618 29.4361C259.966 28.6414 261.477 28.2441 263.153 28.2441C264.829 28.2441 266.341 28.6414 267.688 29.4361C269.036 30.2135 270.089 31.3105 270.85 32.7271C271.61 34.1264 271.99 35.7244 271.99 37.5211C271.99 39.3005 271.61 40.8985 270.85 42.3151C270.089 43.7317 269.036 44.8373 267.688 45.632C266.341 46.4094 264.829 46.7981 263.153 46.7981ZM263.153 45.7616C264.587 45.7616 265.883 45.4247 267.04 44.751C268.198 44.0772 269.105 43.1184 269.761 41.8746C270.435 40.6307 270.772 39.1796 270.772 37.5211C270.772 35.8454 270.435 34.3856 269.761 33.1417C269.105 31.8979 268.198 30.9391 267.04 30.2653C265.883 29.5916 264.587 29.2547 263.153 29.2547C261.719 29.2547 260.424 29.5916 259.266 30.2653C258.109 30.9391 257.193 31.8979 256.519 33.1417C255.846 34.3856 255.509 35.8454 255.509 37.5211C255.509 39.1796 255.846 40.6307 256.519 41.8746C257.193 43.1184 258.109 44.0772 259.266 44.751C260.424 45.4247 261.719 45.7616 263.153 45.7616ZM294.613 46.5908H293.447L282.771 30.3172V46.5908H281.605V28.4255H282.771L293.447 44.6473V28.4255H294.613V46.5908ZM310.239 46.7722C309.064 46.7722 308.036 46.5649 307.155 46.1503C306.274 45.7357 305.583 45.1742 305.082 44.4659C304.598 43.7576 304.322 42.9716 304.253 42.1078H305.471C305.609 43.058 306.049 43.9045 306.792 44.6473C307.552 45.3902 308.701 45.7616 310.239 45.7616C311.137 45.7616 311.915 45.5975 312.571 45.2692C313.245 44.941 313.763 44.4918 314.126 43.9217C314.489 43.3516 314.67 42.7211 314.67 42.0301C314.67 41.149 314.454 40.4493 314.022 39.9311C313.608 39.4128 313.081 39.0241 312.441 38.765C311.82 38.5058 310.973 38.2294 309.902 37.9357C308.727 37.6248 307.777 37.3138 307.051 37.0028C306.343 36.6919 305.738 36.2168 305.237 35.5776C304.754 34.9211 304.512 34.0314 304.512 32.9085C304.512 32.0447 304.736 31.2587 305.186 30.5504C305.652 29.8248 306.309 29.2547 307.155 28.8401C308.002 28.4255 308.978 28.2182 310.083 28.2182C311.69 28.2182 312.986 28.6155 313.97 29.4102C314.955 30.2049 315.542 31.1809 315.732 32.3384H314.489C314.385 31.872 314.152 31.3969 313.789 30.9132C313.443 30.4295 312.942 30.0321 312.286 29.7212C311.647 29.3929 310.878 29.2288 309.98 29.2288C308.77 29.2288 307.751 29.5657 306.922 30.2394C306.093 30.8959 305.678 31.777 305.678 32.8826C305.678 33.7637 305.894 34.472 306.326 35.0075C306.758 35.5258 307.285 35.9231 307.907 36.1995C308.546 36.4587 309.401 36.7264 310.472 37.0028C311.664 37.3311 312.606 37.6507 313.297 37.9616C314.005 38.2553 314.601 38.7304 315.085 39.3869C315.586 40.0261 315.836 40.8985 315.836 42.0041C315.836 42.8161 315.62 43.5849 315.188 44.3104C314.756 45.036 314.117 45.632 313.271 46.0985C312.441 46.5476 311.431 46.7722 310.239 46.7722Z" fill="white"/>
</g>
<defs>
<clipPath id="clip0_212_101">
<rect y="0.59082" width="378.261" height="376" rx="16" fill="white"/>
</clipPath>
</defs>
</svg>
