<svg xmlns="http://www.w3.org/2000/svg" width="205" height="355" fill="none" viewBox="0 0 205 355"><path fill="#E8C4A4" d="M123.244 50.3786C123.163 50.4546 123.081 50.5307 123 50.6069C114.815 58.2803 105.727 72.5567 96.2583 91.1069C100.609 88.4451 105.968 85.322 111.835 82.1069C134.625 69.6202 165.093 55.745 174 62.1069C188 72.1069 141 81.1069 132 82.1069C124.8 82.9069 115.557 82.4403 111.835 82.1069C105.968 85.322 100.609 88.4451 96.2583 91.1069C92.4944 98.4804 88.6702 106.529 84.8185 115.107C79.9853 125.87 75.1087 137.467 70.2534 149.607C65.6188 161.195 61.0036 173.279 56.464 185.607C59.7496 181.01 63.701 175.667 67.9896 170.107C68.0073 170.084 68.025 170.061 68.0427 170.038C86.6062 145.978 111.455 117.894 116 128.607C123 145.107 96.1815 150.107 90.5 154.107C84.8469 158.087 71.6125 165.46 68.0427 170.038C68.025 170.061 68.0073 170.084 67.9896 170.107C63.701 175.667 59.7496 181.01 56.464 185.607C51.86 198.11 47.3337 210.864 42.9438 223.607L18 181.607C16.6667 174.44 17.4 160.907 31 164.107C44.6 167.307 44.6292 205.107 42.9438 223.607C47.3337 210.864 51.86 198.11 56.464 185.607C61.0036 173.279 65.6188 161.195 70.2534 149.607C67.4697 145.344 63.6403 139.654 59.3957 133.607C59.2223 133.36 59.0481 133.112 58.8733 132.864C47.5916 117.359 17.9376 109.576 14 107.607C10 105.607 19.5 91.1069 31 99.1069C37.3186 103.502 49.1101 118.999 58.8733 132.864C59.0521 133.11 59.2263 133.357 59.3957 133.607C63.6403 139.654 67.4697 145.344 70.2534 149.607C75.1087 137.467 79.9853 125.87 84.8185 115.107L64.5 62.1069C66.1667 58.2736 71.6 51.4069 80 54.6069C88.4 57.807 86.7123 96.2736 84.8185 115.107C88.6702 106.529 92.4944 98.4804 96.2583 91.1069C105.727 72.5567 114.815 58.2803 123 50.6069C113.833 40.4402 94.5 20.1069 90.5 20.1069C85.5 20.1069 83 -1.89308 101.5 2.60692C116.3 6.20692 122 36.1069 123 50.6069C123.073 50.5296 123.154 50.4536 123.244 50.3786C161.522 14.6098 190.354 15.2838 200 20.1069C204 25.9402 207.2 38.4069 188 41.6069C164.389 45.5421 128.68 45.8319 123.244 50.3786Z"/><path stroke="#E8C4A4" stroke-width="3" d="M2 354.107C11.5245 320.38 26.2479 272.072 42.9438 223.607M123 50.6069C161.4 14.6069 190.333 15.2736 200 20.1069C204 25.9402 207.2 38.4069 188 41.6069C164 45.6069 127.5 45.8404 123 50.6069ZM123 50.6069C122 36.1069 116.3 6.20692 101.5 2.60692C83 -1.89308 85.5 20.1069 90.5 20.1069C94.5 20.1069 113.833 40.4402 123 50.6069ZM123 50.6069C114.815 58.2803 105.727 72.5567 96.2583 91.1069M96.2583 91.1069C100.609 88.4451 105.968 85.322 111.835 82.1069M96.2583 91.1069C92.4944 98.4804 88.6702 106.529 84.8185 115.107M111.835 82.1069C134.625 69.6202 165.093 55.745 174 62.1069C188 72.1069 141 81.1069 132 82.1069C124.8 82.9069 115.557 82.4403 111.835 82.1069ZM84.8185 115.107C86.7123 96.2736 88.4 57.807 80 54.6069C71.6 51.4069 66.1667 58.2736 64.5 62.1069L84.8185 115.107ZM84.8185 115.107C79.9853 125.87 75.1087 137.467 70.2534 149.607M70.2534 149.607C67.4697 145.344 63.6403 139.654 59.3957 133.607M70.2534 149.607C65.6188 161.195 61.0036 173.279 56.464 185.607M59.3957 133.607C49.534 119.557 37.4317 103.581 31 99.1069C19.5 91.1069 10 105.607 14 107.607C18 109.607 48.5381 117.607 59.3957 133.607ZM56.464 185.607C59.7496 181.01 63.701 175.667 67.9896 170.107M56.464 185.607C51.86 198.11 47.3337 210.864 42.9438 223.607M67.9896 170.107C86.5588 146.032 111.451 117.884 116 128.607C123 145.107 96.1815 150.107 90.5 154.107C84.8185 158.107 71.4792 165.534 67.9896 170.107ZM42.9438 223.607C44.6292 205.107 44.6 167.307 31 164.107C17.4 160.907 16.6667 174.44 18 181.607L42.9438 223.607Z"/></svg>