<svg width="379" height="383" viewBox="0 0 379 383" fill="none" xmlns="http://www.w3.org/2000/svg">
<g clip-path="url(#clip0_212_788)">
<rect x="0.76123" width="376" height="376" rx="16" fill="#240E01"/>
<path d="M358.66 106.34C358.667 106.375 358.673 106.41 358.68 106.445C359.356 109.982 359.021 115.402 357.978 122.005C357.351 120.493 356.549 118.671 355.633 116.729C352.074 109.187 346.784 99.8349 343.272 99.8053C337.75 99.7589 348.252 110.965 350.399 112.923C352.117 114.49 354.604 116.113 355.633 116.729C356.549 118.671 357.351 120.493 357.978 122.005C357.563 124.629 357.037 127.44 356.418 130.393C355.641 134.099 354.718 138.03 353.687 142.097C352.703 145.98 351.621 149.987 350.473 154.044C350.487 152.231 350.47 150.098 350.406 147.846C350.406 147.836 350.406 147.827 350.405 147.818C350.128 138.069 348.978 126.09 345.776 128.013C340.845 130.974 346.863 137.334 347.583 139.444C348.299 141.544 350.343 145.955 350.405 147.818C350.406 147.827 350.406 147.836 350.406 147.846C350.47 150.098 350.487 152.231 350.473 154.044C349.308 158.158 348.076 162.323 346.811 166.459L361.212 160.265C362.91 158.656 365.274 155.005 361.14 153.269C357.006 151.533 349.864 161.339 346.811 166.459C348.076 162.323 349.308 158.158 350.473 154.044C351.621 149.987 352.703 145.98 353.687 142.097C355.215 141.516 357.282 140.762 359.525 139.993C359.617 139.962 359.709 139.93 359.801 139.899C365.656 138.003 374.822 141.58 376.216 141.812C377.631 142.047 377.902 136.491 373.407 136.397C370.937 136.346 364.952 138.143 359.801 139.899C359.708 139.929 359.616 139.96 359.525 139.993C357.282 140.762 355.215 141.516 353.687 142.097C354.718 138.03 355.641 134.099 356.418 130.393L371.694 120.471C371.985 119.161 371.871 116.353 369.086 115.599C366.302 114.844 359.481 125.147 356.418 130.393C357.037 127.44 357.563 124.629 357.978 122.005C359.021 115.402 359.356 109.982 358.68 106.445C362.978 105.536 371.834 103.907 372.872 104.662C374.17 105.606 378.971 100.367 373.32 98.0436C368.798 96.1849 361.676 102.87 358.68 106.445C358.676 106.411 358.669 106.376 358.66 106.34C355.474 89.8314 347.863 84.5651 344.449 83.9966C342.31 84.7558 339.127 87.3879 343.507 91.842C348.893 97.3194 358.107 104.134 358.66 106.34Z" fill="#E8C4A4"/>
<path d="M332.81 208.06C336.702 197.508 341.998 182.19 346.811 166.459M358.68 106.445C359.356 109.982 359.021 115.402 357.978 122.005M357.978 122.005C357.351 120.493 356.549 118.671 355.633 116.729M357.978 122.005C357.563 124.629 357.037 127.44 356.418 130.393M356.418 130.393C355.641 134.099 354.718 138.03 353.687 142.097M353.687 142.097C355.215 141.516 357.282 140.762 359.525 139.993M353.687 142.097C352.703 145.98 351.621 149.987 350.473 154.044M350.473 154.044C350.487 152.231 350.47 150.098 350.406 147.846M350.473 154.044C349.308 158.158 348.076 162.323 346.811 166.459M358.68 106.445C355.507 89.8538 347.871 84.5664 344.449 83.9966C342.31 84.7558 339.127 87.3879 343.507 91.842C348.981 97.4097 358.411 104.359 358.68 106.445ZM358.68 106.445C361.676 102.87 368.798 96.1849 373.32 98.0436C378.971 100.367 374.17 105.606 372.872 104.662C371.834 103.907 362.978 105.536 358.68 106.445ZM355.633 116.729C352.074 109.187 346.784 99.8349 343.272 99.8053C337.75 99.7589 348.252 110.965 350.399 112.923C352.117 114.49 354.604 116.113 355.633 116.729ZM356.418 130.393C359.481 125.147 366.302 114.844 369.086 115.599C371.871 116.353 371.985 119.161 371.694 120.471L356.418 130.393ZM359.525 139.993C364.737 138.207 370.893 136.345 373.407 136.397C377.902 136.491 377.631 142.047 376.216 141.812C374.8 141.576 365.363 137.889 359.525 139.993ZM350.406 147.846C350.13 138.092 348.981 126.088 345.776 128.013C340.845 130.974 346.863 137.334 347.583 139.444C348.303 141.555 350.363 146 350.406 147.846ZM346.811 166.459C349.864 161.339 357.006 151.533 361.14 153.269C365.274 155.005 362.91 158.656 361.212 160.265L346.811 166.459Z" stroke="#E8C4A4" stroke-width="0.962776"/>
<path d="M100.136 242.247C89.2525 227.447 73.9987 205.834 59.2893 183.415M13.1018 95.5552C6.84952 91.1422 7.30957 83.3465 0.809571 83.3465M13.1018 95.5552C6.1036 95.7011 2.30957 95.3465 0.80957 95.5552M13.1018 95.5552C13.7193 101.226 16.7646 109.426 21.4438 119.185M21.4438 119.185C21.6963 116.64 22.0711 113.556 22.5655 110.247M21.4438 119.185C23.3037 123.065 25.4218 127.19 27.7482 131.502M27.7482 131.502C20.6135 124.548 5.30957 112.847 0.80957 112.847M27.7482 131.502C27.7482 131.502 1.80957 121.347 0.809571 121.347M27.7482 131.502C30.6674 136.911 33.9146 142.613 37.3913 148.487M37.3913 148.487C34.7844 148.142 31.2694 147.726 27.4799 147.351M37.3913 148.487C40.71 154.093 44.2377 159.857 47.8889 165.672M0.80957 146.847C5.80957 146.847 18.6754 146.478 27.4799 147.351M0.809571 154.847C2.80957 154.847 17.5684 146.214 27.4799 147.351M47.8889 165.672C47.0194 162.894 46.0497 159.614 45.095 156.134M47.8889 165.672C51.5918 171.569 55.4217 177.52 59.2893 183.415M13.1018 95.5552C10.2048 68.9513 19.4136 58.0978 24.3801 55.9966C28.0065 56.3949 34.1048 59.2934 29.4869 67.7004C23.7145 78.2091 12.5378 92.2564 13.1018 95.5552ZM22.5655 110.247C24.4854 97.3943 28.2076 81.1437 33.566 79.8389C41.9886 77.7879 31.1625 98.7534 28.7929 102.529C26.8973 105.549 23.8514 108.933 22.5655 110.247ZM45.095 156.134C40.9615 141.064 37.1112 122.227 42.9116 124.032C51.8367 126.81 45.6037 138.728 45.4887 142.226C45.3736 145.723 44.2983 153.285 45.095 156.134ZM59.2893 183.415C52.2268 176.651 36.7239 164.16 31.2121 168.307C25.7003 172.454 31.0211 177.21 34.3704 179.07L59.2893 183.415Z" stroke="#FAFAFA" stroke-width="1.3395"/>
<path d="M57.2614 310.996C32.3782 310.996 19.4656 318.261 12.1145 325.457C5.09615 332.328 0.261231 348.369 0.261231 358.19L0.261231 359.496C0.261231 368.333 7.42467 375.496 16.2612 375.496L367.002 375.496C372.668 375.496 377.261 370.903 377.261 365.237C377.261 353.387 318.383 293.428 307.846 288.007C306.621 287.376 305.424 286.707 304.261 285.996C296.701 281.376 261.261 269.496 206.261 264.996C151.261 260.496 107.831 310.996 57.2614 310.996Z" fill="#A45539"/>
<path d="M320.761 247.857C324.474 241.781 330.017 233.136 335.981 224.569M361.55 195.103C371.419 190.157 374.761 188.497 376.761 188.497M361.55 195.103C362.735 194.416 371.537 196.47 376.761 196.997M361.55 195.103C362.081 192.212 362.413 186.054 359.501 184.543C355.86 182.654 355.261 187.092 356.307 187.365C357.144 187.583 360.151 192.614 361.55 195.103ZM361.55 195.103C359.447 196.157 356.818 198.453 353.891 201.565M353.891 201.565C354.937 201.281 356.217 200.963 357.608 200.654M353.891 201.565C352.728 202.801 351.517 204.167 350.274 205.634M357.608 200.654C363.013 199.455 370.094 198.404 371.633 200.134C374.051 202.853 363.76 202.049 361.827 201.754C360.28 201.518 358.37 200.922 357.608 200.654ZM350.274 205.634C351.631 202.054 353.945 194.623 352.351 193.539C350.757 192.455 349.27 193.502 348.726 194.161L350.274 205.634ZM350.274 205.634C348.714 207.475 347.103 209.477 345.468 211.587M345.468 211.587C345.103 210.601 344.592 209.279 344.012 207.865M345.468 211.587C343.907 213.6 342.326 215.712 340.747 217.875M344.012 207.865C342.666 204.58 340.949 200.795 339.832 199.569C337.834 197.378 335.107 199.695 335.842 200.304C336.577 200.914 342.557 204.144 344.012 207.865ZM340.747 217.875C341.669 217.155 342.768 216.326 343.949 215.472M340.747 217.875C339.147 220.069 337.549 222.316 335.981 224.569M343.949 215.472C349.061 211.777 355.704 207.63 356.108 209.975C356.731 213.584 350.866 213.099 349.474 213.571C348.081 214.044 344.912 214.768 343.949 215.472ZM335.981 224.569C337.277 221.043 339.199 213.649 336.517 212.281C333.835 210.914 332.992 213.52 332.905 214.995L335.981 224.569Z" stroke="#FDEFE4" stroke-width="1.5"/>
<path d="M29.5951 256.774C29.6232 256.796 29.6512 256.818 29.6793 256.84C32.5059 259.071 35.8013 263.388 39.3353 269.061C37.8715 268.329 36.0727 267.476 34.1087 266.608C26.4808 263.237 16.3596 259.632 13.6851 261.909C9.48124 265.489 24.7557 267.084 27.6608 267.158C29.9849 267.218 32.9278 266.816 34.1087 266.608C36.0727 267.476 37.8715 268.329 39.3353 269.061C40.74 271.316 42.1824 273.786 43.648 276.423C45.4871 279.733 47.3629 283.308 49.2466 287.058C51.0447 290.637 52.8502 294.375 54.6381 298.193C53.4621 296.813 52.0528 295.212 50.5298 293.551C50.5236 293.544 50.5173 293.538 50.5109 293.531C43.9186 286.344 35.2067 278.041 34.0456 281.591C32.2574 287.058 40.9694 287.925 42.8953 289.049C44.8115 290.168 49.2445 292.164 50.5109 293.531C50.5172 293.538 50.5235 293.544 50.5298 293.551C52.0528 295.212 53.4621 296.813 54.6381 298.193C56.4514 302.066 58.2467 306.02 59.998 309.975L66.8283 295.865C67.0592 293.537 66.4555 289.229 62.194 290.624C57.9325 292.018 58.9544 304.106 59.998 309.975C58.2467 306.02 56.4514 302.066 54.6381 298.193C52.8502 294.375 51.0447 290.637 49.2466 287.058C50.0204 285.619 51.0897 283.695 52.282 281.646C52.3307 281.562 52.3797 281.478 52.4288 281.394C55.6133 276.128 64.8832 272.83 66.0886 272.093C67.3131 271.345 63.8798 266.967 60.4207 269.839C58.5202 271.417 55.1725 276.694 52.4288 281.394C52.3783 281.477 52.3294 281.561 52.282 281.646C51.0897 283.695 50.0204 285.619 49.2466 287.058C47.3629 283.308 45.4871 279.733 43.648 276.423L48.6992 258.922C48.0617 257.741 46.137 255.694 43.5383 256.946C40.9396 258.199 42.5286 270.453 43.648 276.423C42.1824 273.786 40.74 271.316 39.3353 269.061C35.8013 263.388 32.5059 259.071 29.6793 256.84C32.3331 253.339 37.9605 246.31 39.2396 246.201C40.8384 246.064 41.0376 238.961 35.2448 240.905C30.6105 242.46 29.6035 252.176 29.6793 256.84C29.6539 256.818 29.6258 256.795 29.5951 256.774C16.3792 246.381 7.17838 247.383 4.22546 249.188C3.10555 251.163 2.42241 255.236 8.64917 255.736C16.3064 256.35 27.7328 255.468 29.5951 256.774Z" fill="#E8C4A4"/>
<path d="M76.6506 350.588C72.6849 340.063 66.659 325.017 59.998 309.975M29.6793 256.84C16.4183 246.376 7.18465 247.379 4.22546 249.188C3.10555 251.163 2.42241 255.236 8.64917 255.736C16.4326 256.36 28.1104 255.439 29.6793 256.84ZM29.6793 256.84C29.6035 252.176 30.6105 242.46 35.2448 240.905C41.0376 238.961 40.8384 246.064 39.2396 246.201C37.9605 246.31 32.3331 253.339 29.6793 256.84ZM29.6793 256.84C32.5059 259.071 35.8013 263.388 39.3353 269.061M39.3353 269.061C37.8715 268.329 36.0727 267.476 34.1087 266.608M39.3353 269.061C40.74 271.316 42.1824 273.786 43.648 276.423M34.1087 266.608C26.4808 263.237 16.3596 259.632 13.6851 261.909C9.48125 265.489 24.7557 267.084 27.6608 267.158C29.9849 267.218 32.9278 266.816 34.1087 266.608ZM43.648 276.423C42.5286 270.453 40.9396 258.199 43.5383 256.946C46.137 255.694 48.0617 257.741 48.6992 258.922L43.648 276.423ZM43.648 276.423C45.4871 279.733 47.3629 283.308 49.2466 287.058M49.2466 287.058C50.0204 285.619 51.0897 283.695 52.282 281.646M49.2466 287.058C51.0447 290.637 52.8502 294.375 54.6381 298.193M52.282 281.646C55.0521 276.884 58.4861 271.445 60.4207 269.839C63.8798 266.967 67.3131 271.345 66.0886 272.093C64.8641 272.842 55.3174 276.233 52.282 281.646ZM54.6381 298.193C53.4621 296.813 52.0528 295.212 50.5298 293.551M54.6381 298.193C56.4514 302.066 58.2467 306.02 59.998 309.975M50.5298 293.551C43.9352 286.36 35.2078 278.038 34.0456 281.591C32.2574 287.058 40.9694 287.925 42.8953 289.049C44.8211 290.173 49.2892 292.184 50.5298 293.551ZM59.998 309.975C58.9544 304.106 57.9325 292.018 62.194 290.624C66.4555 289.229 67.0592 293.537 66.8283 295.865L59.998 309.975Z" stroke="#E8C4A4" stroke-width="0.962776"/>
<path d="M60.9486 33.8053V45.1813C60.9486 47.2371 61.415 48.7488 62.3479 49.7162C63.2808 50.6664 64.5506 51.1414 66.1572 51.1414C67.7466 51.1414 68.999 50.6664 69.9146 49.7162C70.8303 48.766 71.2881 47.2544 71.2881 45.1813V33.8053H72.4542V45.1554C72.4542 47.5222 71.8841 49.2843 70.7439 50.4418C69.6037 51.5992 68.0748 52.178 66.1572 52.178C64.2396 52.178 62.6934 51.5992 61.5187 50.4418C60.3612 49.267 59.7825 47.5049 59.7825 45.1554V33.8053H60.9486ZM87.9383 52.178C86.7635 52.178 85.7356 51.9707 84.8546 51.5561C83.9735 51.1414 83.2825 50.58 82.7815 49.8717C82.2978 49.1634 82.0214 48.3773 81.9523 47.5136H83.1702C83.3084 48.4637 83.7489 49.3102 84.4918 50.0531C85.2519 50.7959 86.4007 51.1674 87.9383 51.1674C88.8366 51.1674 89.614 51.0032 90.2705 50.675C90.9442 50.3468 91.4625 49.8976 91.8253 49.3275C92.1881 48.7574 92.3695 48.1268 92.3695 47.4358C92.3695 46.5548 92.1535 45.8551 91.7216 45.3368C91.307 44.8186 90.7801 44.4299 90.1409 44.1707C89.519 43.9116 88.6725 43.6352 87.6014 43.3415C86.4266 43.0305 85.4765 42.7196 84.7509 42.4086C84.0426 42.0976 83.438 41.6226 82.937 40.9834C82.4532 40.3269 82.2114 39.4372 82.2114 38.3143C82.2114 37.4505 82.436 36.6645 82.8851 35.9561C83.3516 35.2306 84.0081 34.6605 84.8546 34.2459C85.7011 33.8312 86.6771 33.6239 87.7828 33.6239C89.3894 33.6239 90.6851 34.0213 91.6698 34.816C92.6545 35.6106 93.2419 36.5867 93.4319 37.7442H92.1881C92.0844 37.2777 91.8512 36.8027 91.4884 36.3189C91.1429 35.8352 90.6419 35.4379 89.9854 35.1269C89.3462 34.7987 88.5775 34.6346 87.6791 34.6346C86.4698 34.6346 85.4506 34.9714 84.6213 35.6452C83.7921 36.3017 83.3775 37.1827 83.3775 38.2884C83.3775 39.1694 83.5934 39.8777 84.0253 40.4133C84.4572 40.9315 84.9841 41.3289 85.6061 41.6053C86.2453 41.8644 87.1004 42.1322 88.1715 42.4086C89.3635 42.7368 90.305 43.0564 90.9961 43.3674C91.7044 43.6611 92.3004 44.1362 92.7841 44.7926C93.2851 45.4318 93.5356 46.3043 93.5356 47.4099C93.5356 48.2219 93.3196 48.9906 92.8877 49.7162C92.4558 50.4418 91.8166 51.0378 90.9701 51.5042C90.1409 51.9534 89.1303 52.178 87.9383 52.178ZM104.282 34.79V42.3827H111.538V43.3674H104.282V51.0119H112.315V51.9966H103.116V33.8053H112.315V34.79H104.282ZM131.756 51.9966L127.091 44.2485H126.988H123.101V51.9966H121.935V33.8053H126.936C128.957 33.8053 130.469 34.2804 131.471 35.2306C132.49 36.1807 133 37.4419 133 39.0139C133 40.4133 132.602 41.5707 131.808 42.4863C131.03 43.3847 129.89 43.9375 128.387 44.1448L133.155 51.9966H131.756ZM123.101 43.2637H126.988C128.594 43.2637 129.795 42.875 130.59 42.0976C131.384 41.3202 131.782 40.2923 131.782 39.0139C131.782 36.2326 130.167 34.8419 126.936 34.8419H123.101V43.2637ZM157.119 33.8053V51.9966H155.953V33.8053H157.119ZM180.492 51.9966H179.326L168.65 35.7229V51.9966H167.484V33.8312H168.65L179.326 50.0531V33.8312H180.492V51.9966ZM200.912 33.8053V34.79H195.729V51.9966H194.563V34.79H189.38V33.8053H200.912ZM210.943 34.79V42.3827H218.199V43.3674H210.943V51.0119H218.977V51.9966H209.777V33.8053H218.977V34.79H210.943ZM238.417 51.9966L233.753 44.2485H233.649H229.762V51.9966H228.596V33.8053H233.597C235.618 33.8053 237.13 34.2804 238.132 35.2306C239.151 36.1807 239.661 37.4419 239.661 39.0139C239.661 40.4133 239.264 41.5707 238.469 42.4863C237.692 43.3847 236.551 43.9375 235.048 44.1448L239.816 51.9966H238.417ZM229.762 43.2637H233.649C235.256 43.2637 236.456 42.875 237.251 42.0976C238.046 41.3202 238.443 40.2923 238.443 39.0139C238.443 36.2326 236.828 34.8419 233.597 34.8419H229.762V43.2637ZM258.592 33.8053V34.79H250.377V42.3827H257.555V43.3674H250.377V51.9966H249.211V33.8053H258.592ZM278.09 47.3322H269.461L267.725 51.9966H266.455L273.141 34.2199H274.437L281.096 51.9966H279.827L278.09 47.3322ZM277.728 46.3474L273.789 35.7488L269.824 46.3474H277.728ZM289.387 42.9269C289.387 41.1302 289.759 39.5322 290.502 38.1329C291.262 36.7163 292.298 35.6106 293.611 34.816C294.942 34.0213 296.427 33.6239 298.068 33.6239C300.142 33.6239 301.886 34.1077 303.303 35.0751C304.72 36.0425 305.756 37.3987 306.413 39.1435H305.065C304.547 37.7615 303.683 36.6731 302.474 35.8784C301.282 35.0665 299.813 34.6605 298.068 34.6605C296.669 34.6605 295.399 34.9974 294.259 35.6711C293.119 36.3276 292.221 37.2864 291.564 38.5475C290.908 39.7913 290.579 41.2511 290.579 42.9269C290.579 44.5853 290.908 46.0365 291.564 47.2803C292.221 48.5069 293.119 49.4571 294.259 50.1308C295.399 50.8046 296.669 51.1414 298.068 51.1414C299.813 51.1414 301.282 50.7441 302.474 49.9494C303.683 49.1375 304.547 48.0405 305.065 46.6584H306.413C305.756 48.4032 304.72 49.7594 303.303 50.7268C301.886 51.6943 300.142 52.178 298.068 52.178C296.427 52.178 294.942 51.7893 293.611 51.0119C292.298 50.2172 291.262 49.1202 290.502 47.7209C289.759 46.3043 289.387 44.7063 289.387 42.9269ZM317.31 34.79V42.3827H324.566V43.3674H317.31V51.0119H325.343V51.9966H316.144V33.8053H325.343V34.79H317.31Z" fill="white"/>
<path d="M41.7497 97.9321C41.9635 96.6398 42.8348 95.7446 44.1164 95.4738C73.0859 89.3542 297.539 75.8318 332.995 83.4542C334.564 83.7917 335.512 85.187 335.538 86.7926C336.063 119.126 337.747 300.577 348.13 371.585C348.474 373.942 346.655 375.997 344.273 375.997C294.514 375.999 105.868 375.89 54.6698 375.989C52.7025 375.993 51.1457 374.585 50.9516 372.627C46.5273 328.003 36.7933 127.887 41.7497 97.9321Z" fill="#FAFAFA"/>
<rect width="148.397" height="14.0443" rx="1.93282" transform="matrix(0.998142 -0.0609262 0.0643645 0.997926 70.2012 132.144)" fill="#D79267"/>
<rect width="148.397" height="89.2193" rx="1.93282" transform="matrix(0.998045 -0.0624908 0.0660612 0.997816 61.8447 210.974)" fill="#D79267"/>
<rect width="105.512" height="8.10034" rx="1.93282" transform="matrix(0.998045 -0.0624908 0.0660612 0.997816 216.368 201.721)" fill="#DFD4C1"/>
<rect width="105.512" height="8.10034" rx="1.93282" transform="matrix(0.998045 -0.0624908 0.0660612 0.997816 216.656 215.859)" fill="#DFD4C1"/>
<rect width="105.512" height="8.10034" rx="1.93282" transform="matrix(0.998045 -0.0624908 0.0660612 0.997816 216.964 230.939)" fill="#DFD4C1"/>
<rect width="89.0499" height="8.10034" rx="1.93282" transform="matrix(0.998045 -0.0624908 0.0660612 0.997816 230.258 124.37)" fill="#DFD4C1"/>
<rect width="148.319" height="8.10034" rx="1.93282" transform="matrix(0.998045 -0.0624908 0.0660612 0.997816 71.5837 306.752)" fill="#DFD4C1"/>
<path d="M178.618 364.211C178.618 363.193 179.408 362.354 180.423 362.29L324.586 353.264C325.702 353.194 326.647 354.082 326.647 355.2L326.644 360.487C326.644 361.518 325.833 362.365 324.802 362.41L180.641 368.727C179.538 368.776 178.616 367.892 178.616 366.789L178.618 364.211Z" fill="#DFD4C1"/>
<rect width="200.35" height="14.5966" rx="1.93282" transform="matrix(0.99935 -0.0360366 0.0382665 0.999268 115.639 94.8247)" fill="#DFD4C1"/>
<rect width="62.0999" height="42.2849" rx="1.93282" transform="matrix(0.998142 -0.0609262 0.0643645 0.997926 63.7822 159.377)" fill="#F8A251"/>
<path d="M76.6351 332.485C76.6356 331.466 77.427 330.626 78.4439 330.564L322.249 315.682C323.364 315.614 324.308 316.502 324.307 317.618L324.293 344.461C324.293 345.494 323.48 346.341 322.447 346.384L78.6444 356.589C77.5431 356.635 76.6232 355.753 76.6237 354.651L76.6351 332.485Z" fill="#F8A251"/>
<path d="M221.274 248.681C221.207 247.587 222.062 246.659 223.158 246.637L258.337 245.92C259.407 245.899 260.294 246.75 260.316 247.82L261.129 287.745C261.15 288.779 260.353 289.643 259.321 289.706L225.868 291.748C224.8 291.813 223.88 290.999 223.814 289.931L221.274 248.681Z" fill="#D79267"/>
<path d="M266.59 250.869C266.522 249.811 267.318 248.899 268.376 248.824L320.385 245.15C321.458 245.074 322.389 245.888 322.459 246.961L324.729 282.159C324.799 283.255 323.944 284.185 322.846 284.208L270.675 285.271C269.638 285.292 268.765 284.491 268.698 283.456L266.59 250.869Z" fill="#D79267"/>
<rect width="62.0999" height="42.2849" rx="1.93282" transform="matrix(0.998142 -0.0609262 0.0643645 0.997926 136.36 152.16)" fill="#D79267"/>
<rect width="18.8401" height="13.8053" rx="1.93282" transform="matrix(0.998142 -0.0609262 0.0643645 0.997926 208.98 147.012)" fill="#D79267"/>
<rect width="18.8401" height="13.8053" rx="1.93282" transform="matrix(0.998142 -0.0609262 0.0643645 0.997926 211.361 166.092)" fill="#D79267"/>
<path d="M229.943 181.061L234.308 210.664C234.513 212.054 236.084 212.768 237.265 212.008L245.634 206.629C246.44 206.11 247.504 206.261 248.135 206.983L279.575 242.969C280.216 243.703 281.304 243.845 282.112 243.3L306.433 226.888C307.664 226.057 307.538 224.207 306.206 223.551L260.534 201.076C259.281 200.46 259.075 198.759 260.145 197.861L269.972 189.613C271.214 188.57 270.698 186.554 269.108 186.237L232.234 178.883C230.923 178.622 229.748 179.738 229.943 181.061Z" fill="#F8A251"/>
<path d="M289.357 236.107L252.244 199.476C251.952 199.189 251.503 199.113 251.129 199.278C232.573 207.491 233.124 211.511 235.761 212.5L246.535 205.942C246.954 205.687 247.496 205.774 247.815 206.147L279.204 242.848C279.525 243.223 280.071 243.308 280.49 243.049L289.181 237.669C289.731 237.328 289.818 236.562 289.357 236.107Z" fill="#A45539"/>
<path d="M259.761 194.5C258.561 196.1 258.761 197.667 259.261 198.5C259.513 199 263.761 194.5 267.761 191.5C271.761 188.5 270.761 187.5 269.761 186.5L269.761 186.5C268.761 185.5 261.261 192.5 259.761 194.5Z" fill="#A45539"/>
<ellipse cx="55.889" cy="108.026" rx="4.98013" ry="4.78113" transform="rotate(-1.16717 55.889 108.026)" fill="#B83F3F"/>
<ellipse cx="72.7593" cy="104.813" rx="4.98013" ry="4.78113" transform="rotate(-1.16717 72.7593 104.813)" fill="#F8A251"/>
<ellipse cx="87.6966" cy="104.509" rx="4.98013" ry="4.78113" transform="rotate(-1.16717 87.6966 104.509)" fill="#D76767"/>
<path d="M128.56 257.601L135.628 263.89L144.005 253.039L156.832 265.714L120.183 268.452M162.242 267.583L159.799 235.953C159.606 233.445 157.094 231.61 154.215 231.826L117.565 234.563C116.177 234.667 114.882 235.243 113.965 236.163C113.049 237.084 112.586 238.275 112.679 239.473L115.122 271.103C115.214 272.301 115.855 273.409 116.902 274.183C117.949 274.957 119.318 275.334 120.706 275.23L157.356 272.492C158.744 272.388 160.039 271.813 160.956 270.892C161.872 269.971 162.335 268.781 162.242 267.583Z" fill="#FAFAFA"/>
<path d="M271.28 168.736L257.286 169.607L255.168 176.902L250.749 177.177L260.295 144.559L265.128 144.258L278.736 175.434L274.317 175.709L271.28 168.736ZM269.864 165.404L263.02 149.564L258.264 166.127L269.864 165.404ZM281.409 162.513C281.243 159.936 281.619 157.648 282.538 155.65C283.455 153.621 284.784 152.014 286.525 150.827C288.298 149.638 290.304 148.974 292.544 148.835C294.753 148.697 296.702 149.053 298.39 149.903C300.078 150.753 301.367 151.874 302.258 153.267L301.961 148.664L306.196 148.401L307.821 173.623L303.586 173.886L303.283 169.192C302.55 170.716 301.386 172.021 299.792 173.106C298.227 174.159 296.355 174.753 294.176 174.888C291.936 175.028 289.875 174.602 287.993 173.61C286.111 172.618 284.584 171.157 283.413 169.228C282.241 167.298 281.573 165.06 281.409 162.513ZM302.77 161.229C302.648 159.327 302.158 157.694 301.299 156.33C300.441 154.967 299.329 153.958 297.962 153.303C296.623 152.617 295.172 152.322 293.607 152.419C292.042 152.517 290.638 152.974 289.397 153.791C288.155 154.607 287.197 155.745 286.52 157.204C285.844 158.664 285.567 160.344 285.69 162.247C285.814 164.18 286.306 165.844 287.167 167.238C288.025 168.602 289.123 169.627 290.461 170.314C291.797 170.97 293.248 171.249 294.813 171.152C296.378 171.054 297.782 170.597 299.023 169.781C300.293 168.931 301.266 167.777 301.943 166.318C302.617 164.828 302.893 163.132 302.77 161.229Z" fill="#D79267"/>
</g>
<defs>
<clipPath id="clip0_212_788">
<rect x="0.26123" width="378.575" height="382.182" rx="16" fill="white"/>
</clipPath>
</defs>
</svg>
